<?xml version="1.0" encoding="utf-8" standalone="no"?>
<!DOCTYPE svg PUBLIC "-//W3C//DTD SVG 1.1//EN"
  "http://www.w3.org/Graphics/SVG/1.1/DTD/svg11.dtd">
<svg xmlns:xlink="http://www.w3.org/1999/xlink" width="369.68pt" height="361.5725pt" viewBox="0 0 369.68 361.5725" xmlns="http://www.w3.org/2000/svg" version="1.1">
 <metadata>
  <rdf:RDF xmlns:dc="http://purl.org/dc/elements/1.1/" xmlns:cc="http://creativecommons.org/ns#" xmlns:rdf="http://www.w3.org/1999/02/22-rdf-syntax-ns#">
   <cc:Work>
    <dc:type rdf:resource="http://purl.org/dc/dcmitype/StillImage"/>
    <dc:date>2024-12-07T00:26:42.365690</dc:date>
    <dc:format>image/svg+xml</dc:format>
    <dc:creator>
     <cc:Agent>
      <dc:title>Matplotlib v3.9.3, https://matplotlib.org/</dc:title>
     </cc:Agent>
    </dc:creator>
   </cc:Work>
  </rdf:RDF>
 </metadata>
 <defs>
  <style type="text/css">*{stroke-linejoin: round; stroke-linecap: butt}</style>
 </defs>
 <g id="figure_1">
  <g id="patch_1">
   <path d="M 0 361.5725 
L 369.68 361.5725 
L 369.68 0 
L 0 0 
z
" style="fill: #ffffff"/>
  </g>
  <g id="axes_1">
   <g id="patch_2">
    <path d="M 27.68 339.84 
L 362.48 339.84 
L 362.48 7.2 
L 27.68 7.2 
z
" style="fill: #ffffff"/>
   </g>
   <g id="patch_3">
    <path d="M 55.58 312.12 
L 111.38 312.12 
L 111.38 256.68 
L 55.58 256.68 
L 55.58 312.12 
z
" clip-path="url(#pa6da3e2c93)" style="fill: none; stroke: #000000; stroke-width: 2; stroke-linejoin: miter"/>
   </g>
   <g id="patch_4">
    <path d="M 55.58 256.68 
L 111.38 256.68 
L 111.38 201.24 
L 55.58 201.24 
L 55.58 256.68 
z
" clip-path="url(#pa6da3e2c93)" style="fill: none; stroke: #000000; stroke-width: 2; stroke-linejoin: miter"/>
   </g>
   <g id="patch_5">
    <path d="M 55.58 201.24 
L 111.38 201.24 
L 111.38 145.8 
L 55.58 145.8 
L 55.58 201.24 
z
" clip-path="url(#pa6da3e2c93)" style="fill: none; stroke: #000000; stroke-width: 2; stroke-linejoin: miter"/>
   </g>
   <g id="patch_6">
    <path d="M 55.58 145.8 
L 111.38 145.8 
L 111.38 90.36 
L 55.58 90.36 
L 55.58 145.8 
z
" clip-path="url(#pa6da3e2c93)" style="fill: none; stroke: #000000; stroke-width: 2; stroke-linejoin: miter"/>
   </g>
   <g id="patch_7">
    <path d="M 55.58 90.36 
L 111.38 90.36 
L 111.38 34.92 
L 55.58 34.92 
L 55.58 90.36 
z
" clip-path="url(#pa6da3e2c93)" style="fill: none; stroke: #000000; stroke-width: 2; stroke-linejoin: miter"/>
   </g>
   <g id="patch_8">
    <path d="M 111.38 312.12 
L 167.18 312.12 
L 167.18 256.68 
L 111.38 256.68 
L 111.38 312.12 
z
" clip-path="url(#pa6da3e2c93)" style="fill: none; stroke: #000000; stroke-width: 2; stroke-linejoin: miter"/>
   </g>
   <g id="patch_9">
    <path d="M 111.38 256.68 
L 167.18 256.68 
L 167.18 201.24 
L 111.38 201.24 
L 111.38 256.68 
z
" clip-path="url(#pa6da3e2c93)" style="fill: none; stroke: #000000; stroke-width: 2; stroke-linejoin: miter"/>
   </g>
   <g id="patch_10">
    <path d="M 111.38 201.24 
L 167.18 201.24 
L 167.18 145.8 
L 111.38 145.8 
L 111.38 201.24 
z
" clip-path="url(#pa6da3e2c93)" style="fill: none; stroke: #000000; stroke-width: 2; stroke-linejoin: miter"/>
   </g>
   <g id="patch_11">
    <path d="M 111.38 145.8 
L 167.18 145.8 
L 167.18 90.36 
L 111.38 90.36 
L 111.38 145.8 
z
" clip-path="url(#pa6da3e2c93)" style="fill: none; stroke: #000000; stroke-width: 2; stroke-linejoin: miter"/>
   </g>
   <g id="patch_12">
    <path d="M 111.38 90.36 
L 167.18 90.36 
L 167.18 34.92 
L 111.38 34.92 
L 111.38 90.36 
z
" clip-path="url(#pa6da3e2c93)" style="fill: none; stroke: #000000; stroke-width: 2; stroke-linejoin: miter"/>
   </g>
   <g id="patch_13">
    <path d="M 167.18 312.12 
L 222.98 312.12 
L 222.98 256.68 
L 167.18 256.68 
L 167.18 312.12 
z
" clip-path="url(#pa6da3e2c93)" style="fill: none; stroke: #000000; stroke-width: 2; stroke-linejoin: miter"/>
   </g>
   <g id="patch_14">
    <path d="M 167.18 256.68 
L 222.98 256.68 
L 222.98 201.24 
L 167.18 201.24 
L 167.18 256.68 
z
" clip-path="url(#pa6da3e2c93)" style="fill: none; stroke: #000000; stroke-width: 2; stroke-linejoin: miter"/>
   </g>
   <g id="patch_15">
    <path d="M 167.18 201.24 
L 222.98 201.24 
L 222.98 145.8 
L 167.18 145.8 
L 167.18 201.24 
z
" clip-path="url(#pa6da3e2c93)" style="fill: none; stroke: #000000; stroke-width: 2; stroke-linejoin: miter"/>
   </g>
   <g id="patch_16">
    <path d="M 167.18 145.8 
L 222.98 145.8 
L 222.98 90.36 
L 167.18 90.36 
L 167.18 145.8 
z
" clip-path="url(#pa6da3e2c93)" style="fill: none; stroke: #000000; stroke-width: 2; stroke-linejoin: miter"/>
   </g>
   <g id="patch_17">
    <path d="M 167.18 90.36 
L 222.98 90.36 
L 222.98 34.92 
L 167.18 34.92 
L 167.18 90.36 
z
" clip-path="url(#pa6da3e2c93)" style="fill: none; stroke: #000000; stroke-width: 2; stroke-linejoin: miter"/>
   </g>
   <g id="patch_18">
    <path d="M 222.98 312.12 
L 278.78 312.12 
L 278.78 256.68 
L 222.98 256.68 
L 222.98 312.12 
z
" clip-path="url(#pa6da3e2c93)" style="fill: none; stroke: #000000; stroke-width: 2; stroke-linejoin: miter"/>
   </g>
   <g id="patch_19">
    <path d="M 222.98 256.68 
L 278.78 256.68 
L 278.78 201.24 
L 222.98 201.24 
L 222.98 256.68 
z
" clip-path="url(#pa6da3e2c93)" style="fill: none; stroke: #000000; stroke-width: 2; stroke-linejoin: miter"/>
   </g>
   <g id="patch_20">
    <path d="M 222.98 201.24 
L 278.78 201.24 
L 278.78 145.8 
L 222.98 145.8 
L 222.98 201.24 
z
" clip-path="url(#pa6da3e2c93)" style="fill: none; stroke: #000000; stroke-width: 2; stroke-linejoin: miter"/>
   </g>
   <g id="patch_21">
    <path d="M 222.98 145.8 
L 278.78 145.8 
L 278.78 90.36 
L 222.98 90.36 
L 222.98 145.8 
z
" clip-path="url(#pa6da3e2c93)" style="fill: none; stroke: #000000; stroke-width: 2; stroke-linejoin: miter"/>
   </g>
   <g id="patch_22">
    <path d="M 222.98 90.36 
L 278.78 90.36 
L 278.78 34.92 
L 222.98 34.92 
L 222.98 90.36 
z
" clip-path="url(#pa6da3e2c93)" style="fill: none; stroke: #000000; stroke-width: 2; stroke-linejoin: miter"/>
   </g>
   <g id="patch_23">
    <path d="M 278.78 312.12 
L 334.58 312.12 
L 334.58 256.68 
L 278.78 256.68 
L 278.78 312.12 
z
" clip-path="url(#pa6da3e2c93)" style="fill: none; stroke: #000000; stroke-width: 2; stroke-linejoin: miter"/>
   </g>
   <g id="patch_24">
    <path d="M 278.78 256.68 
L 334.58 256.68 
L 334.58 201.24 
L 278.78 201.24 
L 278.78 256.68 
z
" clip-path="url(#pa6da3e2c93)" style="fill: none; stroke: #000000; stroke-width: 2; stroke-linejoin: miter"/>
   </g>
   <g id="patch_25">
    <path d="M 278.78 201.24 
L 334.58 201.24 
L 334.58 145.8 
L 278.78 145.8 
L 278.78 201.24 
z
" clip-path="url(#pa6da3e2c93)" style="fill: none; stroke: #000000; stroke-width: 2; stroke-linejoin: miter"/>
   </g>
   <g id="patch_26">
    <path d="M 278.78 145.8 
L 334.58 145.8 
L 334.58 90.36 
L 278.78 90.36 
L 278.78 145.8 
z
" clip-path="url(#pa6da3e2c93)" style="fill: none; stroke: #000000; stroke-width: 2; stroke-linejoin: miter"/>
   </g>
   <g id="patch_27">
    <path d="M 278.78 90.36 
L 334.58 90.36 
L 334.58 34.92 
L 278.78 34.92 
L 278.78 90.36 
z
" clip-path="url(#pa6da3e2c93)" style="fill: none; stroke: #000000; stroke-width: 2; stroke-linejoin: miter"/>
   </g>
   <g id="patch_28">
    <path d="M 55.58 312.12 
L 222.98 312.12 
L 222.98 145.8 
L 55.58 145.8 
L 55.58 312.12 
z
" clip-path="url(#pa6da3e2c93)" style="fill: none; stroke: #0000ff; stroke-width: 4; stroke-linejoin: miter"/>
   </g>
   <g id="patch_29">
    <path d="M 111.38 256.68 
L 278.78 256.68 
L 278.78 90.36 
L 111.38 90.36 
L 111.38 256.68 
z
" clip-path="url(#pa6da3e2c93)" style="fill: none; stroke: #cc0000; stroke-width: 4; stroke-linejoin: miter"/>
   </g>
   <g id="patch_30">
    <path d="M 176.144619 196.223484 
L 174.955381 195.168516 
L 119.155381 257.261316 
L 117.966143 256.206347 
L 105.8 273.312 
L 121.533857 259.371253 
L 120.344619 258.316284 
z
" clip-path="url(#pa6da3e2c93)" style="fill: #0000ff; stroke: #0000ff; stroke-linejoin: miter"/>
   </g>
   <g id="patch_31">
    <path d="M 175.79295 196.45032 
L 175.30705 194.94168 
L 119.50705 212.68248 
L 119.021151 211.17384 
L 105.8 217.872 
L 120.478849 215.69976 
L 119.99295 214.19112 
z
" clip-path="url(#pa6da3e2c93)" style="fill: #0000ff; stroke: #0000ff; stroke-linejoin: miter"/>
   </g>
   <g id="patch_32">
    <path d="M 175.205052 196.410006 
L 175.894948 194.981994 
L 120.094948 168.370794 
L 120.784845 166.942781 
L 105.8 162.432 
L 118.715155 171.226819 
L 119.405052 169.798806 
z
" clip-path="url(#pa6da3e2c93)" style="fill: #0000ff; stroke: #0000ff; stroke-linejoin: miter"/>
   </g>
   <g id="patch_33">
    <path d="M 176.334729 195.835226 
L 174.765271 195.556774 
L 163.605271 257.649574 
L 162.035812 257.371121 
L 161.6 273.312 
L 166.744188 258.206479 
L 165.174729 257.928026 
z
" clip-path="url(#pa6da3e2c93)" style="fill: #0000ff; stroke: #0000ff; stroke-linejoin: miter"/>
   </g>
   <g id="patch_34">
    <path d="M 176.225976 196.115759 
L 174.874024 195.276241 
L 163.714024 213.017041 
L 162.362073 212.177523 
L 161.6 217.872 
L 166.417927 214.696077 
L 165.065976 213.856559 
z
" clip-path="url(#pa6da3e2c93)" style="fill: #0000ff; stroke: #0000ff; stroke-linejoin: miter"/>
   </g>
   <g id="patch_35">
    <path d="M 174.814176 196.000615 
L 176.285824 195.391385 
L 165.125824 168.780185 
L 166.597473 168.170954 
L 161.6 162.432 
L 162.182527 169.998646 
L 163.654176 169.389415 
z
" clip-path="url(#pa6da3e2c93)" style="fill: #0000ff; stroke: #0000ff; stroke-linejoin: miter"/>
   </g>
   <g id="patch_36">
    <path d="M 176.252665 195.322001 
L 174.847335 196.069999 
L 208.327335 258.162799 
L 206.922004 258.910798 
L 217.4 273.312 
L 211.137996 256.666802 
L 209.732665 257.414801 
z
" clip-path="url(#pa6da3e2c93)" style="fill: #0000ff; stroke: #0000ff; stroke-linejoin: miter"/>
   </g>
   <g id="patch_37">
    <path d="M 175.925126 194.997176 
L 175.174874 196.394824 
L 208.654874 214.135624 
L 207.904622 215.533271 
L 217.4 217.872 
L 210.155378 211.340329 
L 209.405126 212.737976 
z
" clip-path="url(#pa6da3e2c93)" style="fill: #0000ff; stroke: #0000ff; stroke-linejoin: miter"/>
   </g>
   <g id="patch_38">
    <path d="M 175.052029 195.077552 
L 176.047971 196.314448 
L 209.527971 169.703248 
L 210.523914 170.940144 
L 217.4 162.432 
L 207.536086 167.229456 
L 208.532029 168.466352 
z
" clip-path="url(#pa6da3e2c93)" style="fill: #0000ff; stroke: #0000ff; stroke-linejoin: miter"/>
   </g>
   <g id="patch_39">
    <path d="M 201.332519 179.489205 
L 199.987481 178.638795 
L 168.739481 227.425995 
L 167.394444 226.575584 
L 161.6 240.048 
L 171.429556 229.126816 
L 170.084519 228.276405 
z
" clip-path="url(#pa6da3e2c93)" style="fill: #cc0000; stroke: #cc0000; stroke-linejoin: miter"/>
   </g>
   <g id="patch_40">
    <path d="M 200.772733 179.84804 
L 200.547267 178.27996 
L 169.299267 182.71516 
L 169.073801 181.14708 
L 161.6 184.608 
L 169.750199 185.85132 
L 169.524733 184.28324 
z
" clip-path="url(#pa6da3e2c93)" style="fill: #cc0000; stroke: #cc0000; stroke-linejoin: miter"/>
   </g>
   <g id="patch_41">
    <path d="M 200.030774 179.550241 
L 201.289226 178.577759 
L 170.041226 138.660959 
L 171.299679 137.688477 
L 161.6 129.168 
L 167.524321 140.605923 
L 168.782774 139.633441 
z
" clip-path="url(#pa6da3e2c93)" style="fill: #cc0000; stroke: #cc0000; stroke-linejoin: miter"/>
   </g>
   <g id="patch_42">
    <path d="M 201.429055 178.855611 
L 199.890945 179.272389 
L 213.282945 228.059589 
L 211.744836 228.476367 
L 217.4 240.048 
L 216.359164 227.226033 
L 214.821055 227.642811 
z
" clip-path="url(#pa6da3e2c93)" style="fill: #cc0000; stroke: #cc0000; stroke-linejoin: miter"/>
   </g>
   <g id="patch_43">
    <path d="M 200.912079 178.312643 
L 200.407921 179.815357 
L 213.799921 184.250557 
L 213.295764 185.753272 
L 217.4 184.608 
L 214.808236 181.245128 
L 214.304079 182.747843 
z
" clip-path="url(#pa6da3e2c93)" style="fill: #cc0000; stroke: #cc0000; stroke-linejoin: miter"/>
   </g>
   <g id="patch_44">
    <path d="M 199.903764 178.813548 
L 201.416236 179.314452 
L 214.808236 139.397652 
L 216.320708 139.898557 
L 217.4 129.168 
L 211.783292 138.395843 
L 213.295764 138.896748 
z
" clip-path="url(#pa6da3e2c93)" style="fill: #cc0000; stroke: #cc0000; stroke-linejoin: miter"/>
   </g>
   <g id="patch_45">
    <path d="M 201.174908 178.459398 
L 200.145092 179.668602 
L 258.177092 228.455802 
L 257.147275 229.665006 
L 273.2 240.048 
L 260.236725 226.037394 
L 259.206908 227.246598 
z
" clip-path="url(#pa6da3e2c93)" style="fill: #cc0000; stroke: #cc0000; stroke-linejoin: miter"/>
   </g>
   <g id="patch_46">
    <path d="M 200.721138 178.274333 
L 200.598862 179.853667 
L 258.630862 184.288867 
L 258.508586 185.868201 
L 273.2 184.608 
L 258.875414 181.130199 
L 258.753138 182.709533 
z
" clip-path="url(#pa6da3e2c93)" style="fill: #cc0000; stroke: #cc0000; stroke-linejoin: miter"/>
   </g>
   <g id="patch_47">
    <path d="M 200.206258 178.412824 
L 201.113742 179.715176 
L 259.145742 139.798376 
L 260.053225 141.100729 
L 273.2 129.168 
L 257.330775 137.193671 
L 258.238258 138.496024 
z
" clip-path="url(#pa6da3e2c93)" style="fill: #cc0000; stroke: #cc0000; stroke-linejoin: miter"/>
   </g>
   <g id="line2d_1">
    <path d="M 195.08 339.84 
L 195.08 7.2 
" clip-path="url(#pa6da3e2c93)" style="fill: none; stroke-dasharray: 2,3.3; stroke-dashoffset: 0; stroke: #000000; stroke-width: 2"/>
   </g>
   <g id="line2d_2">
    <path d="M 27.68 173.52 
L 362.48 173.52 
" clip-path="url(#pa6da3e2c93)" style="fill: none; stroke-dasharray: 2,3.3; stroke-dashoffset: 0; stroke: #000000; stroke-width: 2"/>
   </g>
   <g id="text_1">
    <!-- $-2$ -->
    <g transform="translate(73.24 350.95) scale(0.16 -0.16)">
     <defs>
      <path id="Cmsy10-a1" d="M 653 1472 
Q 600 1472 565 1512 
Q 531 1553 531 1600 
Q 531 1647 565 1687 
Q 600 1728 653 1728 
L 4325 1728 
Q 4375 1728 4408 1687 
Q 4441 1647 4441 1600 
Q 4441 1553 4408 1512 
Q 4375 1472 4325 1472 
L 653 1472 
z
" transform="scale(0.015625)"/>
      <path id="Cmr10-32" d="M 319 0 
L 319 172 
Q 319 188 331 206 
L 1325 1306 
Q 1550 1550 1690 1715 
Q 1831 1881 1968 2097 
Q 2106 2313 2186 2536 
Q 2266 2759 2266 3009 
Q 2266 3272 2169 3511 
Q 2072 3750 1880 3894 
Q 1688 4038 1416 4038 
Q 1138 4038 916 3870 
Q 694 3703 603 3438 
Q 628 3444 672 3444 
Q 816 3444 917 3347 
Q 1019 3250 1019 3097 
Q 1019 2950 917 2848 
Q 816 2747 672 2747 
Q 522 2747 420 2851 
Q 319 2956 319 3097 
Q 319 3338 409 3548 
Q 500 3759 670 3923 
Q 841 4088 1055 4175 
Q 1269 4263 1509 4263 
Q 1875 4263 2190 4108 
Q 2506 3953 2690 3670 
Q 2875 3388 2875 3009 
Q 2875 2731 2753 2481 
Q 2631 2231 2440 2026 
Q 2250 1822 1953 1562 
Q 1656 1303 1563 1216 
L 838 519 
L 1453 519 
Q 1906 519 2211 526 
Q 2516 534 2534 550 
Q 2609 631 2688 1141 
L 2875 1141 
L 2694 0 
L 319 0 
z
" transform="scale(0.015625)"/>
     </defs>
     <use xlink:href="#Cmsy10-a1" transform="translate(0 0.390625)"/>
     <use xlink:href="#Cmr10-32" transform="translate(77.685547 0.390625)"/>
    </g>
   </g>
   <g id="text_2">
    <!-- $-1$ -->
    <g transform="translate(129.04 350.95) scale(0.16 -0.16)">
     <defs>
      <path id="Cmr10-31" d="M 594 0 
L 594 225 
Q 1394 225 1394 428 
L 1394 3788 
Q 1063 3628 556 3628 
L 556 3853 
Q 1341 3853 1741 4263 
L 1831 4263 
Q 1853 4263 1873 4245 
Q 1894 4228 1894 4206 
L 1894 428 
Q 1894 225 2694 225 
L 2694 0 
L 594 0 
z
" transform="scale(0.015625)"/>
     </defs>
     <use xlink:href="#Cmsy10-a1" transform="translate(0 0.390625)"/>
     <use xlink:href="#Cmr10-31" transform="translate(77.685547 0.390625)"/>
    </g>
   </g>
   <g id="text_3">
    <!-- $0$ -->
    <g transform="translate(191.08 350.95) scale(0.16 -0.16)">
     <defs>
      <path id="Cmr10-30" d="M 1600 -141 
Q 816 -141 533 504 
Q 250 1150 250 2041 
Q 250 2597 351 3087 
Q 453 3578 754 3920 
Q 1056 4263 1600 4263 
Q 2022 4263 2290 4056 
Q 2559 3850 2700 3523 
Q 2841 3197 2892 2823 
Q 2944 2450 2944 2041 
Q 2944 1491 2842 1011 
Q 2741 531 2444 195 
Q 2147 -141 1600 -141 
z
M 1600 25 
Q 1956 25 2131 390 
Q 2306 756 2347 1200 
Q 2388 1644 2388 2144 
Q 2388 2625 2347 3031 
Q 2306 3438 2132 3767 
Q 1959 4097 1600 4097 
Q 1238 4097 1063 3765 
Q 888 3434 847 3029 
Q 806 2625 806 2144 
Q 806 1788 823 1472 
Q 841 1156 916 820 
Q 991 484 1158 254 
Q 1325 25 1600 25 
z
" transform="scale(0.015625)"/>
     </defs>
     <use xlink:href="#Cmr10-30" transform="translate(0 0.390625)"/>
    </g>
   </g>
   <g id="text_4">
    <!-- $1$ -->
    <g transform="translate(246.88 350.95) scale(0.16 -0.16)">
     <use xlink:href="#Cmr10-31" transform="translate(0 0.390625)"/>
    </g>
   </g>
   <g id="text_5">
    <!-- $2$ -->
    <g transform="translate(302.68 350.95) scale(0.16 -0.16)">
     <use xlink:href="#Cmr10-32" transform="translate(0 0.390625)"/>
    </g>
   </g>
   <g id="text_6">
    <!-- $-2$ -->
    <g transform="translate(7.2 288.24375) scale(0.16 -0.16)">
     <use xlink:href="#Cmsy10-a1" transform="translate(0 0.390625)"/>
     <use xlink:href="#Cmr10-32" transform="translate(77.685547 0.390625)"/>
    </g>
   </g>
   <g id="text_7">
    <!-- $-1$ -->
    <g transform="translate(7.2 232.80375) scale(0.16 -0.16)">
     <use xlink:href="#Cmsy10-a1" transform="translate(0 0.390625)"/>
     <use xlink:href="#Cmr10-31" transform="translate(77.685547 0.390625)"/>
    </g>
   </g>
   <g id="text_8">
    <!-- $0$ -->
    <g transform="translate(19.68 177.36375) scale(0.16 -0.16)">
     <use xlink:href="#Cmr10-30" transform="translate(0 0.390625)"/>
    </g>
   </g>
   <g id="text_9">
    <!-- $1$ -->
    <g transform="translate(19.68 121.92375) scale(0.16 -0.16)">
     <use xlink:href="#Cmr10-31" transform="translate(0 0.390625)"/>
    </g>
   </g>
   <g id="text_10">
    <!-- $2$ -->
    <g transform="translate(19.68 66.48375) scale(0.16 -0.16)">
     <use xlink:href="#Cmr10-32" transform="translate(0 0.390625)"/>
    </g>
   </g>
   <g id="text_11">
    <!-- $\left\lbrace \mathbf{R}^{\text{BvK}}_{IJ} \right\rbrace$ -->
    <g style="fill: #0000ff" transform="translate(55.58 327.39) scale(0.13 -0.13)">
     <defs>
      <path id="Cmsy10-66" d="M 1369 -769 
L 1369 794 
Q 1369 1116 1106 1316 
Q 844 1516 506 1516 
Q 447 1516 447 1575 
L 447 1631 
Q 447 1650 462 1667 
Q 478 1684 506 1684 
Q 844 1684 1106 1884 
Q 1369 2084 1369 2406 
L 1369 3969 
Q 1369 4259 1567 4445 
Q 1766 4631 2058 4715 
Q 2350 4800 2638 4800 
L 2694 4800 
Q 2713 4800 2730 4786 
Q 2747 4772 2747 4750 
L 2747 4691 
Q 2747 4634 2694 4634 
Q 2484 4634 2282 4556 
Q 2081 4478 1953 4325 
Q 1825 4172 1825 3956 
L 1825 2394 
Q 1825 2188 1715 2025 
Q 1606 1863 1429 1756 
Q 1253 1650 1050 1600 
Q 1372 1522 1598 1317 
Q 1825 1113 1825 806 
L 1825 -756 
Q 1825 -1075 2090 -1254 
Q 2356 -1434 2694 -1434 
Q 2713 -1434 2730 -1448 
Q 2747 -1463 2747 -1491 
L 2747 -1550 
Q 2747 -1569 2730 -1584 
Q 2713 -1600 2694 -1600 
L 2638 -1600 
Q 2175 -1600 1772 -1394 
Q 1369 -1188 1369 -769 
z
" transform="scale(0.015625)"/>
      <path id="Cmb10-52" d="M 219 0 
L 219 325 
L 819 325 
L 819 4063 
L 219 4063 
L 219 4391 
L 2303 4391 
Q 2616 4391 2912 4330 
Q 3209 4269 3470 4131 
Q 3731 3994 3893 3758 
Q 4056 3522 4056 3194 
Q 4056 2931 3925 2725 
Q 3794 2519 3581 2378 
Q 3369 2238 3109 2163 
Q 3363 2053 3541 1847 
Q 3719 1641 3750 1375 
L 3822 819 
Q 3859 531 3934 357 
Q 4009 184 4213 184 
Q 4319 184 4386 257 
Q 4453 331 4483 439 
Q 4513 547 4513 647 
Q 4531 731 4616 750 
L 4738 750 
Q 4838 731 4838 622 
Q 4838 450 4758 289 
Q 4678 128 4536 28 
Q 4394 -72 4219 -72 
Q 3641 -72 3228 112 
Q 2816 297 2816 794 
L 2816 1350 
Q 2816 1625 2683 1847 
Q 2550 2069 2291 2069 
L 1716 2069 
L 1716 325 
L 2316 325 
L 2316 0 
L 219 0 
z
M 1716 2322 
L 2181 2322 
Q 2534 2322 2720 2400 
Q 2906 2478 2979 2662 
Q 3053 2847 3053 3194 
Q 3053 3544 2984 3728 
Q 2916 3913 2727 3988 
Q 2538 4063 2181 4063 
L 1716 4063 
L 1716 2322 
z
" transform="scale(0.015625)"/>
      <path id="Cmr10-42" d="M 219 0 
L 219 225 
Q 878 225 878 428 
L 878 3944 
Q 878 4147 219 4147 
L 219 4372 
L 2572 4372 
Q 2897 4372 3228 4245 
Q 3559 4119 3776 3870 
Q 3994 3622 3994 3284 
Q 3994 2894 3673 2630 
Q 3353 2366 2925 2284 
Q 3203 2284 3497 2131 
Q 3791 1978 3978 1722 
Q 4166 1466 4166 1178 
Q 4166 828 3958 559 
Q 3750 291 3419 145 
Q 3088 0 2753 0 
L 219 0 
z
M 1434 428 
Q 1434 291 1512 258 
Q 1591 225 1759 225 
L 2572 225 
Q 2822 225 3036 356 
Q 3250 488 3375 708 
Q 3500 928 3500 1178 
Q 3500 1422 3397 1655 
Q 3294 1888 3101 2038 
Q 2909 2188 2663 2188 
L 1434 2188 
L 1434 428 
z
M 1434 2356 
L 2394 2356 
Q 2588 2356 2758 2426 
Q 2928 2497 3064 2630 
Q 3200 2763 3273 2930 
Q 3347 3097 3347 3284 
Q 3347 3450 3292 3603 
Q 3238 3756 3131 3881 
Q 3025 4006 2881 4076 
Q 2738 4147 2572 4147 
L 1759 4147 
Q 1644 4147 1580 4137 
Q 1516 4128 1475 4083 
Q 1434 4038 1434 3944 
L 1434 2356 
z
" transform="scale(0.015625)"/>
      <path id="Cmr10-76" d="M 1563 0 
L 628 2350 
Q 569 2469 445 2501 
Q 322 2534 122 2534 
L 122 2759 
L 1466 2759 
L 1466 2534 
Q 1106 2534 1106 2381 
Q 1106 2356 1113 2344 
L 1831 538 
L 2478 2169 
Q 2497 2219 2497 2272 
Q 2497 2394 2405 2464 
Q 2313 2534 2188 2534 
L 2188 2759 
L 3250 2759 
L 3250 2534 
Q 3053 2534 2904 2443 
Q 2756 2353 2675 2175 
L 1813 0 
Q 1788 -72 1709 -72 
L 1663 -72 
Q 1584 -72 1563 0 
z
" transform="scale(0.015625)"/>
      <path id="Cmr10-4b" d="M 197 0 
L 197 225 
Q 856 225 856 428 
L 856 3944 
Q 856 4147 197 4147 
L 197 4372 
L 2113 4372 
L 2113 4147 
Q 1453 4147 1453 3944 
L 1453 1869 
L 3431 3769 
Q 3513 3856 3513 3944 
Q 3513 4044 3427 4095 
Q 3341 4147 3231 4147 
L 3231 4372 
L 4622 4372 
L 4622 4147 
Q 4097 4147 3700 3769 
L 2566 2681 
L 3969 603 
Q 4141 350 4270 287 
Q 4400 225 4709 225 
L 4709 0 
L 3034 0 
L 3034 225 
Q 3188 225 3292 256 
Q 3397 288 3397 403 
Q 3397 481 3316 603 
L 2169 2303 
L 1453 1613 
L 1453 428 
Q 1453 225 2113 225 
L 2113 0 
L 197 0 
z
" transform="scale(0.015625)"/>
      <path id="Cmmi10-49" d="M 269 0 
Q 206 0 206 84 
Q 231 225 288 225 
Q 666 225 800 250 
Q 947 284 984 441 
L 1863 3956 
Q 1875 4019 1875 4038 
Q 1875 4078 1854 4095 
Q 1834 4113 1791 4122 
Q 1663 4147 1306 4147 
Q 1241 4147 1241 4231 
Q 1263 4313 1275 4342 
Q 1288 4372 1350 4372 
L 3138 4372 
Q 3200 4372 3200 4288 
Q 3197 4272 3187 4234 
Q 3178 4197 3162 4172 
Q 3147 4147 3116 4147 
Q 2741 4147 2597 4122 
Q 2456 4088 2419 3928 
L 1544 416 
Q 1528 338 1528 331 
Q 1528 316 1533 302 
Q 1538 288 1552 277 
Q 1566 266 1580 261 
Q 1594 256 1613 250 
Q 1734 225 2100 225 
Q 2163 225 2163 141 
Q 2141 50 2128 25 
Q 2116 0 2053 0 
L 269 0 
z
" transform="scale(0.015625)"/>
      <path id="Cmmi10-4a" d="M 697 384 
Q 759 206 928 115 
Q 1097 25 1294 25 
Q 1494 25 1680 164 
Q 1866 303 1995 512 
Q 2125 722 2175 928 
L 2931 3956 
Q 2938 3981 2939 3993 
Q 2941 4006 2944 4019 
Q 2944 4088 2894 4103 
Q 2725 4147 2209 4147 
Q 2144 4147 2144 4231 
Q 2156 4281 2164 4309 
Q 2172 4338 2192 4355 
Q 2213 4372 2253 4372 
L 3988 4372 
Q 4050 4372 4050 4288 
Q 4025 4147 3969 4147 
Q 3744 4147 3628 4112 
Q 3513 4078 3469 3928 
L 2713 903 
Q 2641 606 2420 367 
Q 2200 128 1897 -6 
Q 1594 -141 1288 -141 
Q 950 -141 695 46 
Q 441 234 441 556 
Q 441 769 556 922 
Q 672 1075 884 1075 
Q 1006 1075 1089 1000 
Q 1172 925 1172 806 
Q 1172 634 1044 506 
Q 916 378 744 378 
Q 709 378 697 384 
z
" transform="scale(0.015625)"/>
      <path id="Cmsy10-67" d="M 447 -1550 
L 447 -1491 
Q 447 -1466 464 -1450 
Q 481 -1434 506 -1434 
Q 713 -1434 913 -1356 
Q 1113 -1278 1241 -1125 
Q 1369 -972 1369 -756 
L 1369 806 
Q 1369 1113 1597 1317 
Q 1825 1522 2144 1600 
Q 1819 1684 1594 1886 
Q 1369 2088 1369 2394 
L 1369 3956 
Q 1369 4172 1241 4325 
Q 1113 4478 914 4556 
Q 716 4634 506 4634 
Q 447 4634 447 4691 
L 447 4750 
Q 447 4800 506 4800 
L 563 4800 
Q 847 4800 1139 4715 
Q 1431 4631 1628 4443 
Q 1825 4256 1825 3969 
L 1825 2406 
Q 1825 2084 2090 1884 
Q 2356 1684 2694 1684 
Q 2713 1684 2730 1668 
Q 2747 1653 2747 1631 
L 2747 1575 
Q 2747 1550 2731 1533 
Q 2716 1516 2694 1516 
Q 2356 1516 2090 1316 
Q 1825 1116 1825 794 
L 1825 -769 
Q 1825 -1191 1425 -1395 
Q 1025 -1600 563 -1600 
L 506 -1600 
Q 447 -1600 447 -1550 
z
" transform="scale(0.015625)"/>
     </defs>
     <use xlink:href="#Cmsy10-66" transform="translate(0 2.146875) scale(1.131344)"/>
     <use xlink:href="#Cmb10-52" transform="translate(56.5625 0.917188)"/>
     <use xlink:href="#Cmr10-42" transform="translate(136.905547 39.18125) scale(0.7)"/>
     <use xlink:href="#Cmr10-76" transform="translate(186.466094 39.18125) scale(0.7)"/>
     <use xlink:href="#Cmr10-4b" transform="translate(223.345977 39.18125) scale(0.7)"/>
     <use xlink:href="#Cmmi10-49" transform="translate(136.905547 -24.592187) scale(0.7)"/>
     <use xlink:href="#Cmmi10-4a" transform="translate(167.633086 -24.592187) scale(0.7)"/>
     <use xlink:href="#Cmsy10-67" transform="translate(284.103203 2.146875) scale(1.131344)"/>
    </g>
   </g>
   <g id="text_12">
    <!-- $\left\lbrace \mathbf{R}^{\text{BvK}}_{KL} \right\rbrace$ -->
    <g style="fill: #cc0000" transform="translate(278.78 105.63) scale(0.13 -0.13)">
     <defs>
      <path id="Cmmi10-4b" d="M 300 0 
Q 238 0 238 84 
Q 241 100 250 139 
Q 259 178 276 201 
Q 294 225 319 225 
Q 709 225 863 269 
Q 947 297 984 441 
L 1863 3956 
Q 1875 4019 1875 4044 
Q 1875 4113 1797 4122 
Q 1678 4147 1338 4147 
Q 1275 4147 1275 4231 
Q 1297 4313 1309 4342 
Q 1322 4372 1381 4372 
L 3103 4372 
Q 3169 4372 3169 4288 
Q 3166 4272 3156 4234 
Q 3147 4197 3131 4172 
Q 3116 4147 3084 4147 
Q 2694 4147 2541 4103 
Q 2456 4072 2419 3928 
L 1900 1856 
L 4409 3794 
Q 4416 3806 4489 3879 
Q 4563 3953 4563 4025 
Q 4563 4147 4347 4147 
Q 4281 4147 4281 4231 
Q 4294 4281 4301 4309 
Q 4309 4338 4329 4355 
Q 4350 4372 4391 4372 
L 5631 4372 
Q 5666 4372 5681 4347 
Q 5697 4322 5697 4288 
Q 5694 4272 5683 4231 
Q 5672 4191 5655 4169 
Q 5638 4147 5606 4147 
Q 5138 4147 4581 3713 
Q 4578 3709 4572 3707 
Q 4566 3706 4559 3704 
Q 4553 3703 4550 3700 
L 3231 2675 
L 4191 428 
Q 4278 288 4378 256 
Q 4478 225 4684 225 
Q 4750 225 4750 141 
Q 4731 66 4712 33 
Q 4694 0 4641 0 
L 3156 0 
Q 3097 0 3097 84 
Q 3106 150 3118 187 
Q 3131 225 3181 225 
Q 3344 225 3458 258 
Q 3572 291 3572 409 
Q 3572 453 3566 475 
L 2772 2322 
L 1838 1600 
L 1544 416 
Q 1528 338 1528 325 
Q 1528 259 1606 250 
Q 1728 225 2069 225 
Q 2131 225 2131 141 
Q 2109 50 2096 25 
Q 2084 0 2022 0 
L 300 0 
z
" transform="scale(0.015625)"/>
      <path id="Cmmi10-4c" d="M 300 0 
Q 238 0 238 84 
Q 241 100 250 139 
Q 259 178 276 201 
Q 294 225 319 225 
Q 709 225 863 269 
Q 947 297 984 441 
L 1863 3956 
Q 1875 4019 1875 4044 
Q 1875 4113 1797 4122 
Q 1678 4147 1338 4147 
Q 1275 4147 1275 4231 
Q 1297 4313 1309 4342 
Q 1322 4372 1381 4372 
L 3272 4372 
Q 3328 4372 3328 4288 
Q 3319 4222 3306 4184 
Q 3294 4147 3244 4147 
Q 2772 4147 2613 4116 
Q 2456 4088 2419 3928 
L 1544 416 
Q 1516 338 1516 275 
Q 1516 225 1734 225 
L 2328 225 
Q 2831 225 3143 425 
Q 3456 625 3606 876 
Q 3756 1128 3857 1398 
Q 3959 1669 4006 1678 
L 4063 1678 
Q 4128 1678 4128 1594 
L 3559 44 
Q 3550 0 3500 0 
L 300 0 
z
" transform="scale(0.015625)"/>
     </defs>
     <use xlink:href="#Cmsy10-66" transform="translate(0 3.298438) scale(1.115922)"/>
     <use xlink:href="#Cmb10-52" transform="translate(55.789062 0.917188)"/>
     <use xlink:href="#Cmr10-42" transform="translate(136.132109 39.18125) scale(0.7)"/>
     <use xlink:href="#Cmr10-76" transform="translate(185.692656 39.18125) scale(0.7)"/>
     <use xlink:href="#Cmr10-4b" transform="translate(222.572539 39.18125) scale(0.7)"/>
     <use xlink:href="#Cmmi10-4b" transform="translate(136.132109 -24.592187) scale(0.7)"/>
     <use xlink:href="#Cmmi10-4c" transform="translate(195.570586 -24.592187) scale(0.7)"/>
     <use xlink:href="#Cmsy10-67" transform="translate(283.329766 3.298438) scale(1.115922)"/>
    </g>
   </g>
   <g id="patch_48">
    <path d="M 63.95 311.5656 
C 65.28185 311.5656 66.55933 311.039864 67.50109 310.10418 
C 68.44285 309.168496 68.972 307.899257 68.972 306.576 
C 68.972 305.252743 68.44285 303.983504 67.50109 303.04782 
C 66.55933 302.112136 65.28185 301.5864 63.95 301.5864 
C 62.61815 301.5864 61.34067 302.112136 60.39891 303.04782 
C 59.45715 303.983504 58.928 305.252743 58.928 306.576 
C 58.928 307.899257 59.45715 309.168496 60.39891 310.10418 
C 61.34067 311.039864 62.61815 311.5656 63.95 311.5656 
z
" clip-path="url(#pa6da3e2c93)" style="stroke: #000000; stroke-linejoin: miter"/>
   </g>
   <g id="patch_49">
    <path d="M 105.8 278.3016 
C 107.13185 278.3016 108.40933 277.775864 109.35109 276.84018 
C 110.29285 275.904496 110.822 274.635257 110.822 273.312 
C 110.822 271.988743 110.29285 270.719504 109.35109 269.78382 
C 108.40933 268.848136 107.13185 268.3224 105.8 268.3224 
C 104.46815 268.3224 103.19067 268.848136 102.24891 269.78382 
C 101.30715 270.719504 100.778 271.988743 100.778 273.312 
C 100.778 274.635257 101.30715 275.904496 102.24891 276.84018 
C 103.19067 277.775864 104.46815 278.3016 105.8 278.3016 
z
" clip-path="url(#pa6da3e2c93)" style="stroke: #000000; stroke-linejoin: miter"/>
   </g>
   <g id="patch_50">
    <path d="M 89.06 294.9336 
C 90.39185 294.9336 91.66933 294.407864 92.61109 293.47218 
C 93.55285 292.536496 94.082 291.267257 94.082 289.944 
C 94.082 288.620743 93.55285 287.351504 92.61109 286.41582 
C 91.66933 285.480136 90.39185 284.9544 89.06 284.9544 
C 87.72815 284.9544 86.45067 285.480136 85.50891 286.41582 
C 84.56715 287.351504 84.038 288.620743 84.038 289.944 
C 84.038 291.267257 84.56715 292.536496 85.50891 293.47218 
C 86.45067 294.407864 87.72815 294.9336 89.06 294.9336 
z
" clip-path="url(#pa6da3e2c93)" style="stroke: #000000; stroke-linejoin: miter"/>
   </g>
   <g id="patch_51">
    <path d="M 105.8 300.4776 
C 107.13185 300.4776 108.40933 299.951864 109.35109 299.01618 
C 110.29285 298.080496 110.822 296.811257 110.822 295.488 
C 110.822 294.164743 110.29285 292.895504 109.35109 291.95982 
C 108.40933 291.024136 107.13185 290.4984 105.8 290.4984 
C 104.46815 290.4984 103.19067 291.024136 102.24891 291.95982 
C 101.30715 292.895504 100.778 294.164743 100.778 295.488 
C 100.778 296.811257 101.30715 298.080496 102.24891 299.01618 
C 103.19067 299.951864 104.46815 300.4776 105.8 300.4776 
z
" clip-path="url(#pa6da3e2c93)" style="stroke: #000000; stroke-linejoin: miter"/>
   </g>
   <g id="patch_52">
    <path d="M 63.95 256.1256 
C 65.28185 256.1256 66.55933 255.599864 67.50109 254.66418 
C 68.44285 253.728496 68.972 252.459257 68.972 251.136 
C 68.972 249.812743 68.44285 248.543504 67.50109 247.60782 
C 66.55933 246.672136 65.28185 246.1464 63.95 246.1464 
C 62.61815 246.1464 61.34067 246.672136 60.39891 247.60782 
C 59.45715 248.543504 58.928 249.812743 58.928 251.136 
C 58.928 252.459257 59.45715 253.728496 60.39891 254.66418 
C 61.34067 255.599864 62.61815 256.1256 63.95 256.1256 
z
" clip-path="url(#pa6da3e2c93)" style="stroke: #000000; stroke-linejoin: miter"/>
   </g>
   <g id="patch_53">
    <path d="M 105.8 222.8616 
C 107.13185 222.8616 108.40933 222.335864 109.35109 221.40018 
C 110.29285 220.464496 110.822 219.195257 110.822 217.872 
C 110.822 216.548743 110.29285 215.279504 109.35109 214.34382 
C 108.40933 213.408136 107.13185 212.8824 105.8 212.8824 
C 104.46815 212.8824 103.19067 213.408136 102.24891 214.34382 
C 101.30715 215.279504 100.778 216.548743 100.778 217.872 
C 100.778 219.195257 101.30715 220.464496 102.24891 221.40018 
C 103.19067 222.335864 104.46815 222.8616 105.8 222.8616 
z
" clip-path="url(#pa6da3e2c93)" style="stroke: #000000; stroke-linejoin: miter"/>
   </g>
   <g id="patch_54">
    <path d="M 89.06 239.4936 
C 90.39185 239.4936 91.66933 238.967864 92.61109 238.03218 
C 93.55285 237.096496 94.082 235.827257 94.082 234.504 
C 94.082 233.180743 93.55285 231.911504 92.61109 230.97582 
C 91.66933 230.040136 90.39185 229.5144 89.06 229.5144 
C 87.72815 229.5144 86.45067 230.040136 85.50891 230.97582 
C 84.56715 231.911504 84.038 233.180743 84.038 234.504 
C 84.038 235.827257 84.56715 237.096496 85.50891 238.03218 
C 86.45067 238.967864 87.72815 239.4936 89.06 239.4936 
z
" clip-path="url(#pa6da3e2c93)" style="stroke: #000000; stroke-linejoin: miter"/>
   </g>
   <g id="patch_55">
    <path d="M 105.8 245.0376 
C 107.13185 245.0376 108.40933 244.511864 109.35109 243.57618 
C 110.29285 242.640496 110.822 241.371257 110.822 240.048 
C 110.822 238.724743 110.29285 237.455504 109.35109 236.51982 
C 108.40933 235.584136 107.13185 235.0584 105.8 235.0584 
C 104.46815 235.0584 103.19067 235.584136 102.24891 236.51982 
C 101.30715 237.455504 100.778 238.724743 100.778 240.048 
C 100.778 241.371257 101.30715 242.640496 102.24891 243.57618 
C 103.19067 244.511864 104.46815 245.0376 105.8 245.0376 
z
" clip-path="url(#pa6da3e2c93)" style="stroke: #000000; stroke-linejoin: miter"/>
   </g>
   <g id="patch_56">
    <path d="M 63.95 200.6856 
C 65.28185 200.6856 66.55933 200.159864 67.50109 199.22418 
C 68.44285 198.288496 68.972 197.019257 68.972 195.696 
C 68.972 194.372743 68.44285 193.103504 67.50109 192.16782 
C 66.55933 191.232136 65.28185 190.7064 63.95 190.7064 
C 62.61815 190.7064 61.34067 191.232136 60.39891 192.16782 
C 59.45715 193.103504 58.928 194.372743 58.928 195.696 
C 58.928 197.019257 59.45715 198.288496 60.39891 199.22418 
C 61.34067 200.159864 62.61815 200.6856 63.95 200.6856 
z
" clip-path="url(#pa6da3e2c93)" style="stroke: #000000; stroke-linejoin: miter"/>
   </g>
   <g id="patch_57">
    <path d="M 105.8 167.4216 
C 107.13185 167.4216 108.40933 166.895864 109.35109 165.96018 
C 110.29285 165.024496 110.822 163.755257 110.822 162.432 
C 110.822 161.108743 110.29285 159.839504 109.35109 158.90382 
C 108.40933 157.968136 107.13185 157.4424 105.8 157.4424 
C 104.46815 157.4424 103.19067 157.968136 102.24891 158.90382 
C 101.30715 159.839504 100.778 161.108743 100.778 162.432 
C 100.778 163.755257 101.30715 165.024496 102.24891 165.96018 
C 103.19067 166.895864 104.46815 167.4216 105.8 167.4216 
z
" clip-path="url(#pa6da3e2c93)" style="stroke: #000000; stroke-linejoin: miter"/>
   </g>
   <g id="patch_58">
    <path d="M 89.06 184.0536 
C 90.39185 184.0536 91.66933 183.527864 92.61109 182.59218 
C 93.55285 181.656496 94.082 180.387257 94.082 179.064 
C 94.082 177.740743 93.55285 176.471504 92.61109 175.53582 
C 91.66933 174.600136 90.39185 174.0744 89.06 174.0744 
C 87.72815 174.0744 86.45067 174.600136 85.50891 175.53582 
C 84.56715 176.471504 84.038 177.740743 84.038 179.064 
C 84.038 180.387257 84.56715 181.656496 85.50891 182.59218 
C 86.45067 183.527864 87.72815 184.0536 89.06 184.0536 
z
" clip-path="url(#pa6da3e2c93)" style="stroke: #000000; stroke-linejoin: miter"/>
   </g>
   <g id="patch_59">
    <path d="M 105.8 189.5976 
C 107.13185 189.5976 108.40933 189.071864 109.35109 188.13618 
C 110.29285 187.200496 110.822 185.931257 110.822 184.608 
C 110.822 183.284743 110.29285 182.015504 109.35109 181.07982 
C 108.40933 180.144136 107.13185 179.6184 105.8 179.6184 
C 104.46815 179.6184 103.19067 180.144136 102.24891 181.07982 
C 101.30715 182.015504 100.778 183.284743 100.778 184.608 
C 100.778 185.931257 101.30715 187.200496 102.24891 188.13618 
C 103.19067 189.071864 104.46815 189.5976 105.8 189.5976 
z
" clip-path="url(#pa6da3e2c93)" style="stroke: #000000; stroke-linejoin: miter"/>
   </g>
   <g id="patch_60">
    <path d="M 63.95 145.2456 
C 65.28185 145.2456 66.55933 144.719864 67.50109 143.78418 
C 68.44285 142.848496 68.972 141.579257 68.972 140.256 
C 68.972 138.932743 68.44285 137.663504 67.50109 136.72782 
C 66.55933 135.792136 65.28185 135.2664 63.95 135.2664 
C 62.61815 135.2664 61.34067 135.792136 60.39891 136.72782 
C 59.45715 137.663504 58.928 138.932743 58.928 140.256 
C 58.928 141.579257 59.45715 142.848496 60.39891 143.78418 
C 61.34067 144.719864 62.61815 145.2456 63.95 145.2456 
z
" clip-path="url(#pa6da3e2c93)" style="stroke: #000000; stroke-linejoin: miter"/>
   </g>
   <g id="patch_61">
    <path d="M 105.8 111.9816 
C 107.13185 111.9816 108.40933 111.455864 109.35109 110.52018 
C 110.29285 109.584496 110.822 108.315257 110.822 106.992 
C 110.822 105.668743 110.29285 104.399504 109.35109 103.46382 
C 108.40933 102.528136 107.13185 102.0024 105.8 102.0024 
C 104.46815 102.0024 103.19067 102.528136 102.24891 103.46382 
C 101.30715 104.399504 100.778 105.668743 100.778 106.992 
C 100.778 108.315257 101.30715 109.584496 102.24891 110.52018 
C 103.19067 111.455864 104.46815 111.9816 105.8 111.9816 
z
" clip-path="url(#pa6da3e2c93)" style="stroke: #000000; stroke-linejoin: miter"/>
   </g>
   <g id="patch_62">
    <path d="M 89.06 128.6136 
C 90.39185 128.6136 91.66933 128.087864 92.61109 127.15218 
C 93.55285 126.216496 94.082 124.947257 94.082 123.624 
C 94.082 122.300743 93.55285 121.031504 92.61109 120.09582 
C 91.66933 119.160136 90.39185 118.6344 89.06 118.6344 
C 87.72815 118.6344 86.45067 119.160136 85.50891 120.09582 
C 84.56715 121.031504 84.038 122.300743 84.038 123.624 
C 84.038 124.947257 84.56715 126.216496 85.50891 127.15218 
C 86.45067 128.087864 87.72815 128.6136 89.06 128.6136 
z
" clip-path="url(#pa6da3e2c93)" style="stroke: #000000; stroke-linejoin: miter"/>
   </g>
   <g id="patch_63">
    <path d="M 105.8 134.1576 
C 107.13185 134.1576 108.40933 133.631864 109.35109 132.69618 
C 110.29285 131.760496 110.822 130.491257 110.822 129.168 
C 110.822 127.844743 110.29285 126.575504 109.35109 125.63982 
C 108.40933 124.704136 107.13185 124.1784 105.8 124.1784 
C 104.46815 124.1784 103.19067 124.704136 102.24891 125.63982 
C 101.30715 126.575504 100.778 127.844743 100.778 129.168 
C 100.778 130.491257 101.30715 131.760496 102.24891 132.69618 
C 103.19067 133.631864 104.46815 134.1576 105.8 134.1576 
z
" clip-path="url(#pa6da3e2c93)" style="stroke: #000000; stroke-linejoin: miter"/>
   </g>
   <g id="patch_64">
    <path d="M 63.95 89.8056 
C 65.28185 89.8056 66.55933 89.279864 67.50109 88.34418 
C 68.44285 87.408496 68.972 86.139257 68.972 84.816 
C 68.972 83.492743 68.44285 82.223504 67.50109 81.28782 
C 66.55933 80.352136 65.28185 79.8264 63.95 79.8264 
C 62.61815 79.8264 61.34067 80.352136 60.39891 81.28782 
C 59.45715 82.223504 58.928 83.492743 58.928 84.816 
C 58.928 86.139257 59.45715 87.408496 60.39891 88.34418 
C 61.34067 89.279864 62.61815 89.8056 63.95 89.8056 
z
" clip-path="url(#pa6da3e2c93)" style="stroke: #000000; stroke-linejoin: miter"/>
   </g>
   <g id="patch_65">
    <path d="M 105.8 56.5416 
C 107.13185 56.5416 108.40933 56.015864 109.35109 55.08018 
C 110.29285 54.144496 110.822 52.875257 110.822 51.552 
C 110.822 50.228743 110.29285 48.959504 109.35109 48.02382 
C 108.40933 47.088136 107.13185 46.5624 105.8 46.5624 
C 104.46815 46.5624 103.19067 47.088136 102.24891 48.02382 
C 101.30715 48.959504 100.778 50.228743 100.778 51.552 
C 100.778 52.875257 101.30715 54.144496 102.24891 55.08018 
C 103.19067 56.015864 104.46815 56.5416 105.8 56.5416 
z
" clip-path="url(#pa6da3e2c93)" style="stroke: #000000; stroke-linejoin: miter"/>
   </g>
   <g id="patch_66">
    <path d="M 89.06 73.1736 
C 90.39185 73.1736 91.66933 72.647864 92.61109 71.71218 
C 93.55285 70.776496 94.082 69.507257 94.082 68.184 
C 94.082 66.860743 93.55285 65.591504 92.61109 64.65582 
C 91.66933 63.720136 90.39185 63.1944 89.06 63.1944 
C 87.72815 63.1944 86.45067 63.720136 85.50891 64.65582 
C 84.56715 65.591504 84.038 66.860743 84.038 68.184 
C 84.038 69.507257 84.56715 70.776496 85.50891 71.71218 
C 86.45067 72.647864 87.72815 73.1736 89.06 73.1736 
z
" clip-path="url(#pa6da3e2c93)" style="stroke: #000000; stroke-linejoin: miter"/>
   </g>
   <g id="patch_67">
    <path d="M 105.8 78.7176 
C 107.13185 78.7176 108.40933 78.191864 109.35109 77.25618 
C 110.29285 76.320496 110.822 75.051257 110.822 73.728 
C 110.822 72.404743 110.29285 71.135504 109.35109 70.19982 
C 108.40933 69.264136 107.13185 68.7384 105.8 68.7384 
C 104.46815 68.7384 103.19067 69.264136 102.24891 70.19982 
C 101.30715 71.135504 100.778 72.404743 100.778 73.728 
C 100.778 75.051257 101.30715 76.320496 102.24891 77.25618 
C 103.19067 78.191864 104.46815 78.7176 105.8 78.7176 
z
" clip-path="url(#pa6da3e2c93)" style="stroke: #000000; stroke-linejoin: miter"/>
   </g>
   <g id="patch_68">
    <path d="M 119.75 311.5656 
C 121.08185 311.5656 122.35933 311.039864 123.30109 310.10418 
C 124.24285 309.168496 124.772 307.899257 124.772 306.576 
C 124.772 305.252743 124.24285 303.983504 123.30109 303.04782 
C 122.35933 302.112136 121.08185 301.5864 119.75 301.5864 
C 118.41815 301.5864 117.14067 302.112136 116.19891 303.04782 
C 115.25715 303.983504 114.728 305.252743 114.728 306.576 
C 114.728 307.899257 115.25715 309.168496 116.19891 310.10418 
C 117.14067 311.039864 118.41815 311.5656 119.75 311.5656 
z
" clip-path="url(#pa6da3e2c93)" style="stroke: #000000; stroke-linejoin: miter"/>
   </g>
   <g id="patch_69">
    <path d="M 161.6 278.3016 
C 162.93185 278.3016 164.20933 277.775864 165.15109 276.84018 
C 166.09285 275.904496 166.622 274.635257 166.622 273.312 
C 166.622 271.988743 166.09285 270.719504 165.15109 269.78382 
C 164.20933 268.848136 162.93185 268.3224 161.6 268.3224 
C 160.26815 268.3224 158.99067 268.848136 158.04891 269.78382 
C 157.10715 270.719504 156.578 271.988743 156.578 273.312 
C 156.578 274.635257 157.10715 275.904496 158.04891 276.84018 
C 158.99067 277.775864 160.26815 278.3016 161.6 278.3016 
z
" clip-path="url(#pa6da3e2c93)" style="stroke: #000000; stroke-linejoin: miter"/>
   </g>
   <g id="patch_70">
    <path d="M 144.86 294.9336 
C 146.19185 294.9336 147.46933 294.407864 148.41109 293.47218 
C 149.35285 292.536496 149.882 291.267257 149.882 289.944 
C 149.882 288.620743 149.35285 287.351504 148.41109 286.41582 
C 147.46933 285.480136 146.19185 284.9544 144.86 284.9544 
C 143.52815 284.9544 142.25067 285.480136 141.30891 286.41582 
C 140.36715 287.351504 139.838 288.620743 139.838 289.944 
C 139.838 291.267257 140.36715 292.536496 141.30891 293.47218 
C 142.25067 294.407864 143.52815 294.9336 144.86 294.9336 
z
" clip-path="url(#pa6da3e2c93)" style="stroke: #000000; stroke-linejoin: miter"/>
   </g>
   <g id="patch_71">
    <path d="M 161.6 300.4776 
C 162.93185 300.4776 164.20933 299.951864 165.15109 299.01618 
C 166.09285 298.080496 166.622 296.811257 166.622 295.488 
C 166.622 294.164743 166.09285 292.895504 165.15109 291.95982 
C 164.20933 291.024136 162.93185 290.4984 161.6 290.4984 
C 160.26815 290.4984 158.99067 291.024136 158.04891 291.95982 
C 157.10715 292.895504 156.578 294.164743 156.578 295.488 
C 156.578 296.811257 157.10715 298.080496 158.04891 299.01618 
C 158.99067 299.951864 160.26815 300.4776 161.6 300.4776 
z
" clip-path="url(#pa6da3e2c93)" style="stroke: #000000; stroke-linejoin: miter"/>
   </g>
   <g id="patch_72">
    <path d="M 119.75 256.1256 
C 121.08185 256.1256 122.35933 255.599864 123.30109 254.66418 
C 124.24285 253.728496 124.772 252.459257 124.772 251.136 
C 124.772 249.812743 124.24285 248.543504 123.30109 247.60782 
C 122.35933 246.672136 121.08185 246.1464 119.75 246.1464 
C 118.41815 246.1464 117.14067 246.672136 116.19891 247.60782 
C 115.25715 248.543504 114.728 249.812743 114.728 251.136 
C 114.728 252.459257 115.25715 253.728496 116.19891 254.66418 
C 117.14067 255.599864 118.41815 256.1256 119.75 256.1256 
z
" clip-path="url(#pa6da3e2c93)" style="stroke: #000000; stroke-linejoin: miter"/>
   </g>
   <g id="patch_73">
    <path d="M 161.6 222.8616 
C 162.93185 222.8616 164.20933 222.335864 165.15109 221.40018 
C 166.09285 220.464496 166.622 219.195257 166.622 217.872 
C 166.622 216.548743 166.09285 215.279504 165.15109 214.34382 
C 164.20933 213.408136 162.93185 212.8824 161.6 212.8824 
C 160.26815 212.8824 158.99067 213.408136 158.04891 214.34382 
C 157.10715 215.279504 156.578 216.548743 156.578 217.872 
C 156.578 219.195257 157.10715 220.464496 158.04891 221.40018 
C 158.99067 222.335864 160.26815 222.8616 161.6 222.8616 
z
" clip-path="url(#pa6da3e2c93)" style="stroke: #000000; stroke-linejoin: miter"/>
   </g>
   <g id="patch_74">
    <path d="M 144.86 239.4936 
C 146.19185 239.4936 147.46933 238.967864 148.41109 238.03218 
C 149.35285 237.096496 149.882 235.827257 149.882 234.504 
C 149.882 233.180743 149.35285 231.911504 148.41109 230.97582 
C 147.46933 230.040136 146.19185 229.5144 144.86 229.5144 
C 143.52815 229.5144 142.25067 230.040136 141.30891 230.97582 
C 140.36715 231.911504 139.838 233.180743 139.838 234.504 
C 139.838 235.827257 140.36715 237.096496 141.30891 238.03218 
C 142.25067 238.967864 143.52815 239.4936 144.86 239.4936 
z
" clip-path="url(#pa6da3e2c93)" style="stroke: #000000; stroke-linejoin: miter"/>
   </g>
   <g id="patch_75">
    <path d="M 161.6 245.0376 
C 162.93185 245.0376 164.20933 244.511864 165.15109 243.57618 
C 166.09285 242.640496 166.622 241.371257 166.622 240.048 
C 166.622 238.724743 166.09285 237.455504 165.15109 236.51982 
C 164.20933 235.584136 162.93185 235.0584 161.6 235.0584 
C 160.26815 235.0584 158.99067 235.584136 158.04891 236.51982 
C 157.10715 237.455504 156.578 238.724743 156.578 240.048 
C 156.578 241.371257 157.10715 242.640496 158.04891 243.57618 
C 158.99067 244.511864 160.26815 245.0376 161.6 245.0376 
z
" clip-path="url(#pa6da3e2c93)" style="stroke: #000000; stroke-linejoin: miter"/>
   </g>
   <g id="patch_76">
    <path d="M 119.75 200.6856 
C 121.08185 200.6856 122.35933 200.159864 123.30109 199.22418 
C 124.24285 198.288496 124.772 197.019257 124.772 195.696 
C 124.772 194.372743 124.24285 193.103504 123.30109 192.16782 
C 122.35933 191.232136 121.08185 190.7064 119.75 190.7064 
C 118.41815 190.7064 117.14067 191.232136 116.19891 192.16782 
C 115.25715 193.103504 114.728 194.372743 114.728 195.696 
C 114.728 197.019257 115.25715 198.288496 116.19891 199.22418 
C 117.14067 200.159864 118.41815 200.6856 119.75 200.6856 
z
" clip-path="url(#pa6da3e2c93)" style="stroke: #000000; stroke-linejoin: miter"/>
   </g>
   <g id="patch_77">
    <path d="M 161.6 167.4216 
C 162.93185 167.4216 164.20933 166.895864 165.15109 165.96018 
C 166.09285 165.024496 166.622 163.755257 166.622 162.432 
C 166.622 161.108743 166.09285 159.839504 165.15109 158.90382 
C 164.20933 157.968136 162.93185 157.4424 161.6 157.4424 
C 160.26815 157.4424 158.99067 157.968136 158.04891 158.90382 
C 157.10715 159.839504 156.578 161.108743 156.578 162.432 
C 156.578 163.755257 157.10715 165.024496 158.04891 165.96018 
C 158.99067 166.895864 160.26815 167.4216 161.6 167.4216 
z
" clip-path="url(#pa6da3e2c93)" style="stroke: #000000; stroke-linejoin: miter"/>
   </g>
   <g id="patch_78">
    <path d="M 144.86 184.0536 
C 146.19185 184.0536 147.46933 183.527864 148.41109 182.59218 
C 149.35285 181.656496 149.882 180.387257 149.882 179.064 
C 149.882 177.740743 149.35285 176.471504 148.41109 175.53582 
C 147.46933 174.600136 146.19185 174.0744 144.86 174.0744 
C 143.52815 174.0744 142.25067 174.600136 141.30891 175.53582 
C 140.36715 176.471504 139.838 177.740743 139.838 179.064 
C 139.838 180.387257 140.36715 181.656496 141.30891 182.59218 
C 142.25067 183.527864 143.52815 184.0536 144.86 184.0536 
z
" clip-path="url(#pa6da3e2c93)" style="stroke: #000000; stroke-linejoin: miter"/>
   </g>
   <g id="patch_79">
    <path d="M 161.6 189.5976 
C 162.93185 189.5976 164.20933 189.071864 165.15109 188.13618 
C 166.09285 187.200496 166.622 185.931257 166.622 184.608 
C 166.622 183.284743 166.09285 182.015504 165.15109 181.07982 
C 164.20933 180.144136 162.93185 179.6184 161.6 179.6184 
C 160.26815 179.6184 158.99067 180.144136 158.04891 181.07982 
C 157.10715 182.015504 156.578 183.284743 156.578 184.608 
C 156.578 185.931257 157.10715 187.200496 158.04891 188.13618 
C 158.99067 189.071864 160.26815 189.5976 161.6 189.5976 
z
" clip-path="url(#pa6da3e2c93)" style="stroke: #000000; stroke-linejoin: miter"/>
   </g>
   <g id="patch_80">
    <path d="M 119.75 145.2456 
C 121.08185 145.2456 122.35933 144.719864 123.30109 143.78418 
C 124.24285 142.848496 124.772 141.579257 124.772 140.256 
C 124.772 138.932743 124.24285 137.663504 123.30109 136.72782 
C 122.35933 135.792136 121.08185 135.2664 119.75 135.2664 
C 118.41815 135.2664 117.14067 135.792136 116.19891 136.72782 
C 115.25715 137.663504 114.728 138.932743 114.728 140.256 
C 114.728 141.579257 115.25715 142.848496 116.19891 143.78418 
C 117.14067 144.719864 118.41815 145.2456 119.75 145.2456 
z
" clip-path="url(#pa6da3e2c93)" style="stroke: #000000; stroke-linejoin: miter"/>
   </g>
   <g id="patch_81">
    <path d="M 161.6 111.9816 
C 162.93185 111.9816 164.20933 111.455864 165.15109 110.52018 
C 166.09285 109.584496 166.622 108.315257 166.622 106.992 
C 166.622 105.668743 166.09285 104.399504 165.15109 103.46382 
C 164.20933 102.528136 162.93185 102.0024 161.6 102.0024 
C 160.26815 102.0024 158.99067 102.528136 158.04891 103.46382 
C 157.10715 104.399504 156.578 105.668743 156.578 106.992 
C 156.578 108.315257 157.10715 109.584496 158.04891 110.52018 
C 158.99067 111.455864 160.26815 111.9816 161.6 111.9816 
z
" clip-path="url(#pa6da3e2c93)" style="stroke: #000000; stroke-linejoin: miter"/>
   </g>
   <g id="patch_82">
    <path d="M 144.86 128.6136 
C 146.19185 128.6136 147.46933 128.087864 148.41109 127.15218 
C 149.35285 126.216496 149.882 124.947257 149.882 123.624 
C 149.882 122.300743 149.35285 121.031504 148.41109 120.09582 
C 147.46933 119.160136 146.19185 118.6344 144.86 118.6344 
C 143.52815 118.6344 142.25067 119.160136 141.30891 120.09582 
C 140.36715 121.031504 139.838 122.300743 139.838 123.624 
C 139.838 124.947257 140.36715 126.216496 141.30891 127.15218 
C 142.25067 128.087864 143.52815 128.6136 144.86 128.6136 
z
" clip-path="url(#pa6da3e2c93)" style="stroke: #000000; stroke-linejoin: miter"/>
   </g>
   <g id="patch_83">
    <path d="M 161.6 134.1576 
C 162.93185 134.1576 164.20933 133.631864 165.15109 132.69618 
C 166.09285 131.760496 166.622 130.491257 166.622 129.168 
C 166.622 127.844743 166.09285 126.575504 165.15109 125.63982 
C 164.20933 124.704136 162.93185 124.1784 161.6 124.1784 
C 160.26815 124.1784 158.99067 124.704136 158.04891 125.63982 
C 157.10715 126.575504 156.578 127.844743 156.578 129.168 
C 156.578 130.491257 157.10715 131.760496 158.04891 132.69618 
C 158.99067 133.631864 160.26815 134.1576 161.6 134.1576 
z
" clip-path="url(#pa6da3e2c93)" style="stroke: #000000; stroke-linejoin: miter"/>
   </g>
   <g id="patch_84">
    <path d="M 119.75 89.8056 
C 121.08185 89.8056 122.35933 89.279864 123.30109 88.34418 
C 124.24285 87.408496 124.772 86.139257 124.772 84.816 
C 124.772 83.492743 124.24285 82.223504 123.30109 81.28782 
C 122.35933 80.352136 121.08185 79.8264 119.75 79.8264 
C 118.41815 79.8264 117.14067 80.352136 116.19891 81.28782 
C 115.25715 82.223504 114.728 83.492743 114.728 84.816 
C 114.728 86.139257 115.25715 87.408496 116.19891 88.34418 
C 117.14067 89.279864 118.41815 89.8056 119.75 89.8056 
z
" clip-path="url(#pa6da3e2c93)" style="stroke: #000000; stroke-linejoin: miter"/>
   </g>
   <g id="patch_85">
    <path d="M 161.6 56.5416 
C 162.93185 56.5416 164.20933 56.015864 165.15109 55.08018 
C 166.09285 54.144496 166.622 52.875257 166.622 51.552 
C 166.622 50.228743 166.09285 48.959504 165.15109 48.02382 
C 164.20933 47.088136 162.93185 46.5624 161.6 46.5624 
C 160.26815 46.5624 158.99067 47.088136 158.04891 48.02382 
C 157.10715 48.959504 156.578 50.228743 156.578 51.552 
C 156.578 52.875257 157.10715 54.144496 158.04891 55.08018 
C 158.99067 56.015864 160.26815 56.5416 161.6 56.5416 
z
" clip-path="url(#pa6da3e2c93)" style="stroke: #000000; stroke-linejoin: miter"/>
   </g>
   <g id="patch_86">
    <path d="M 144.86 73.1736 
C 146.19185 73.1736 147.46933 72.647864 148.41109 71.71218 
C 149.35285 70.776496 149.882 69.507257 149.882 68.184 
C 149.882 66.860743 149.35285 65.591504 148.41109 64.65582 
C 147.46933 63.720136 146.19185 63.1944 144.86 63.1944 
C 143.52815 63.1944 142.25067 63.720136 141.30891 64.65582 
C 140.36715 65.591504 139.838 66.860743 139.838 68.184 
C 139.838 69.507257 140.36715 70.776496 141.30891 71.71218 
C 142.25067 72.647864 143.52815 73.1736 144.86 73.1736 
z
" clip-path="url(#pa6da3e2c93)" style="stroke: #000000; stroke-linejoin: miter"/>
   </g>
   <g id="patch_87">
    <path d="M 161.6 78.7176 
C 162.93185 78.7176 164.20933 78.191864 165.15109 77.25618 
C 166.09285 76.320496 166.622 75.051257 166.622 73.728 
C 166.622 72.404743 166.09285 71.135504 165.15109 70.19982 
C 164.20933 69.264136 162.93185 68.7384 161.6 68.7384 
C 160.26815 68.7384 158.99067 69.264136 158.04891 70.19982 
C 157.10715 71.135504 156.578 72.404743 156.578 73.728 
C 156.578 75.051257 157.10715 76.320496 158.04891 77.25618 
C 158.99067 78.191864 160.26815 78.7176 161.6 78.7176 
z
" clip-path="url(#pa6da3e2c93)" style="stroke: #000000; stroke-linejoin: miter"/>
   </g>
   <g id="patch_88">
    <path d="M 175.55 311.5656 
C 176.88185 311.5656 178.15933 311.039864 179.10109 310.10418 
C 180.04285 309.168496 180.572 307.899257 180.572 306.576 
C 180.572 305.252743 180.04285 303.983504 179.10109 303.04782 
C 178.15933 302.112136 176.88185 301.5864 175.55 301.5864 
C 174.21815 301.5864 172.94067 302.112136 171.99891 303.04782 
C 171.05715 303.983504 170.528 305.252743 170.528 306.576 
C 170.528 307.899257 171.05715 309.168496 171.99891 310.10418 
C 172.94067 311.039864 174.21815 311.5656 175.55 311.5656 
z
" clip-path="url(#pa6da3e2c93)" style="stroke: #000000; stroke-linejoin: miter"/>
   </g>
   <g id="patch_89">
    <path d="M 217.4 278.3016 
C 218.73185 278.3016 220.00933 277.775864 220.95109 276.84018 
C 221.89285 275.904496 222.422 274.635257 222.422 273.312 
C 222.422 271.988743 221.89285 270.719504 220.95109 269.78382 
C 220.00933 268.848136 218.73185 268.3224 217.4 268.3224 
C 216.06815 268.3224 214.79067 268.848136 213.84891 269.78382 
C 212.90715 270.719504 212.378 271.988743 212.378 273.312 
C 212.378 274.635257 212.90715 275.904496 213.84891 276.84018 
C 214.79067 277.775864 216.06815 278.3016 217.4 278.3016 
z
" clip-path="url(#pa6da3e2c93)" style="stroke: #000000; stroke-linejoin: miter"/>
   </g>
   <g id="patch_90">
    <path d="M 200.66 294.9336 
C 201.99185 294.9336 203.26933 294.407864 204.21109 293.47218 
C 205.15285 292.536496 205.682 291.267257 205.682 289.944 
C 205.682 288.620743 205.15285 287.351504 204.21109 286.41582 
C 203.26933 285.480136 201.99185 284.9544 200.66 284.9544 
C 199.32815 284.9544 198.05067 285.480136 197.10891 286.41582 
C 196.16715 287.351504 195.638 288.620743 195.638 289.944 
C 195.638 291.267257 196.16715 292.536496 197.10891 293.47218 
C 198.05067 294.407864 199.32815 294.9336 200.66 294.9336 
z
" clip-path="url(#pa6da3e2c93)" style="stroke: #000000; stroke-linejoin: miter"/>
   </g>
   <g id="patch_91">
    <path d="M 217.4 300.4776 
C 218.73185 300.4776 220.00933 299.951864 220.95109 299.01618 
C 221.89285 298.080496 222.422 296.811257 222.422 295.488 
C 222.422 294.164743 221.89285 292.895504 220.95109 291.95982 
C 220.00933 291.024136 218.73185 290.4984 217.4 290.4984 
C 216.06815 290.4984 214.79067 291.024136 213.84891 291.95982 
C 212.90715 292.895504 212.378 294.164743 212.378 295.488 
C 212.378 296.811257 212.90715 298.080496 213.84891 299.01618 
C 214.79067 299.951864 216.06815 300.4776 217.4 300.4776 
z
" clip-path="url(#pa6da3e2c93)" style="stroke: #000000; stroke-linejoin: miter"/>
   </g>
   <g id="patch_92">
    <path d="M 175.55 256.1256 
C 176.88185 256.1256 178.15933 255.599864 179.10109 254.66418 
C 180.04285 253.728496 180.572 252.459257 180.572 251.136 
C 180.572 249.812743 180.04285 248.543504 179.10109 247.60782 
C 178.15933 246.672136 176.88185 246.1464 175.55 246.1464 
C 174.21815 246.1464 172.94067 246.672136 171.99891 247.60782 
C 171.05715 248.543504 170.528 249.812743 170.528 251.136 
C 170.528 252.459257 171.05715 253.728496 171.99891 254.66418 
C 172.94067 255.599864 174.21815 256.1256 175.55 256.1256 
z
" clip-path="url(#pa6da3e2c93)" style="stroke: #000000; stroke-linejoin: miter"/>
   </g>
   <g id="patch_93">
    <path d="M 217.4 222.8616 
C 218.73185 222.8616 220.00933 222.335864 220.95109 221.40018 
C 221.89285 220.464496 222.422 219.195257 222.422 217.872 
C 222.422 216.548743 221.89285 215.279504 220.95109 214.34382 
C 220.00933 213.408136 218.73185 212.8824 217.4 212.8824 
C 216.06815 212.8824 214.79067 213.408136 213.84891 214.34382 
C 212.90715 215.279504 212.378 216.548743 212.378 217.872 
C 212.378 219.195257 212.90715 220.464496 213.84891 221.40018 
C 214.79067 222.335864 216.06815 222.8616 217.4 222.8616 
z
" clip-path="url(#pa6da3e2c93)" style="stroke: #000000; stroke-linejoin: miter"/>
   </g>
   <g id="patch_94">
    <path d="M 200.66 239.4936 
C 201.99185 239.4936 203.26933 238.967864 204.21109 238.03218 
C 205.15285 237.096496 205.682 235.827257 205.682 234.504 
C 205.682 233.180743 205.15285 231.911504 204.21109 230.97582 
C 203.26933 230.040136 201.99185 229.5144 200.66 229.5144 
C 199.32815 229.5144 198.05067 230.040136 197.10891 230.97582 
C 196.16715 231.911504 195.638 233.180743 195.638 234.504 
C 195.638 235.827257 196.16715 237.096496 197.10891 238.03218 
C 198.05067 238.967864 199.32815 239.4936 200.66 239.4936 
z
" clip-path="url(#pa6da3e2c93)" style="stroke: #000000; stroke-linejoin: miter"/>
   </g>
   <g id="patch_95">
    <path d="M 217.4 245.0376 
C 218.73185 245.0376 220.00933 244.511864 220.95109 243.57618 
C 221.89285 242.640496 222.422 241.371257 222.422 240.048 
C 222.422 238.724743 221.89285 237.455504 220.95109 236.51982 
C 220.00933 235.584136 218.73185 235.0584 217.4 235.0584 
C 216.06815 235.0584 214.79067 235.584136 213.84891 236.51982 
C 212.90715 237.455504 212.378 238.724743 212.378 240.048 
C 212.378 241.371257 212.90715 242.640496 213.84891 243.57618 
C 214.79067 244.511864 216.06815 245.0376 217.4 245.0376 
z
" clip-path="url(#pa6da3e2c93)" style="stroke: #000000; stroke-linejoin: miter"/>
   </g>
   <g id="patch_96">
    <path d="M 175.55 200.6856 
C 176.88185 200.6856 178.15933 200.159864 179.10109 199.22418 
C 180.04285 198.288496 180.572 197.019257 180.572 195.696 
C 180.572 194.372743 180.04285 193.103504 179.10109 192.16782 
C 178.15933 191.232136 176.88185 190.7064 175.55 190.7064 
C 174.21815 190.7064 172.94067 191.232136 171.99891 192.16782 
C 171.05715 193.103504 170.528 194.372743 170.528 195.696 
C 170.528 197.019257 171.05715 198.288496 171.99891 199.22418 
C 172.94067 200.159864 174.21815 200.6856 175.55 200.6856 
z
" clip-path="url(#pa6da3e2c93)" style="stroke: #000000; stroke-linejoin: miter"/>
   </g>
   <g id="patch_97">
    <path d="M 217.4 167.4216 
C 218.73185 167.4216 220.00933 166.895864 220.95109 165.96018 
C 221.89285 165.024496 222.422 163.755257 222.422 162.432 
C 222.422 161.108743 221.89285 159.839504 220.95109 158.90382 
C 220.00933 157.968136 218.73185 157.4424 217.4 157.4424 
C 216.06815 157.4424 214.79067 157.968136 213.84891 158.90382 
C 212.90715 159.839504 212.378 161.108743 212.378 162.432 
C 212.378 163.755257 212.90715 165.024496 213.84891 165.96018 
C 214.79067 166.895864 216.06815 167.4216 217.4 167.4216 
z
" clip-path="url(#pa6da3e2c93)" style="stroke: #000000; stroke-linejoin: miter"/>
   </g>
   <g id="patch_98">
    <path d="M 200.66 184.0536 
C 201.99185 184.0536 203.26933 183.527864 204.21109 182.59218 
C 205.15285 181.656496 205.682 180.387257 205.682 179.064 
C 205.682 177.740743 205.15285 176.471504 204.21109 175.53582 
C 203.26933 174.600136 201.99185 174.0744 200.66 174.0744 
C 199.32815 174.0744 198.05067 174.600136 197.10891 175.53582 
C 196.16715 176.471504 195.638 177.740743 195.638 179.064 
C 195.638 180.387257 196.16715 181.656496 197.10891 182.59218 
C 198.05067 183.527864 199.32815 184.0536 200.66 184.0536 
z
" clip-path="url(#pa6da3e2c93)" style="stroke: #000000; stroke-linejoin: miter"/>
   </g>
   <g id="patch_99">
    <path d="M 217.4 189.5976 
C 218.73185 189.5976 220.00933 189.071864 220.95109 188.13618 
C 221.89285 187.200496 222.422 185.931257 222.422 184.608 
C 222.422 183.284743 221.89285 182.015504 220.95109 181.07982 
C 220.00933 180.144136 218.73185 179.6184 217.4 179.6184 
C 216.06815 179.6184 214.79067 180.144136 213.84891 181.07982 
C 212.90715 182.015504 212.378 183.284743 212.378 184.608 
C 212.378 185.931257 212.90715 187.200496 213.84891 188.13618 
C 214.79067 189.071864 216.06815 189.5976 217.4 189.5976 
z
" clip-path="url(#pa6da3e2c93)" style="stroke: #000000; stroke-linejoin: miter"/>
   </g>
   <g id="patch_100">
    <path d="M 175.55 145.2456 
C 176.88185 145.2456 178.15933 144.719864 179.10109 143.78418 
C 180.04285 142.848496 180.572 141.579257 180.572 140.256 
C 180.572 138.932743 180.04285 137.663504 179.10109 136.72782 
C 178.15933 135.792136 176.88185 135.2664 175.55 135.2664 
C 174.21815 135.2664 172.94067 135.792136 171.99891 136.72782 
C 171.05715 137.663504 170.528 138.932743 170.528 140.256 
C 170.528 141.579257 171.05715 142.848496 171.99891 143.78418 
C 172.94067 144.719864 174.21815 145.2456 175.55 145.2456 
z
" clip-path="url(#pa6da3e2c93)" style="stroke: #000000; stroke-linejoin: miter"/>
   </g>
   <g id="patch_101">
    <path d="M 217.4 111.9816 
C 218.73185 111.9816 220.00933 111.455864 220.95109 110.52018 
C 221.89285 109.584496 222.422 108.315257 222.422 106.992 
C 222.422 105.668743 221.89285 104.399504 220.95109 103.46382 
C 220.00933 102.528136 218.73185 102.0024 217.4 102.0024 
C 216.06815 102.0024 214.79067 102.528136 213.84891 103.46382 
C 212.90715 104.399504 212.378 105.668743 212.378 106.992 
C 212.378 108.315257 212.90715 109.584496 213.84891 110.52018 
C 214.79067 111.455864 216.06815 111.9816 217.4 111.9816 
z
" clip-path="url(#pa6da3e2c93)" style="stroke: #000000; stroke-linejoin: miter"/>
   </g>
   <g id="patch_102">
    <path d="M 200.66 128.6136 
C 201.99185 128.6136 203.26933 128.087864 204.21109 127.15218 
C 205.15285 126.216496 205.682 124.947257 205.682 123.624 
C 205.682 122.300743 205.15285 121.031504 204.21109 120.09582 
C 203.26933 119.160136 201.99185 118.6344 200.66 118.6344 
C 199.32815 118.6344 198.05067 119.160136 197.10891 120.09582 
C 196.16715 121.031504 195.638 122.300743 195.638 123.624 
C 195.638 124.947257 196.16715 126.216496 197.10891 127.15218 
C 198.05067 128.087864 199.32815 128.6136 200.66 128.6136 
z
" clip-path="url(#pa6da3e2c93)" style="stroke: #000000; stroke-linejoin: miter"/>
   </g>
   <g id="patch_103">
    <path d="M 217.4 134.1576 
C 218.73185 134.1576 220.00933 133.631864 220.95109 132.69618 
C 221.89285 131.760496 222.422 130.491257 222.422 129.168 
C 222.422 127.844743 221.89285 126.575504 220.95109 125.63982 
C 220.00933 124.704136 218.73185 124.1784 217.4 124.1784 
C 216.06815 124.1784 214.79067 124.704136 213.84891 125.63982 
C 212.90715 126.575504 212.378 127.844743 212.378 129.168 
C 212.378 130.491257 212.90715 131.760496 213.84891 132.69618 
C 214.79067 133.631864 216.06815 134.1576 217.4 134.1576 
z
" clip-path="url(#pa6da3e2c93)" style="stroke: #000000; stroke-linejoin: miter"/>
   </g>
   <g id="patch_104">
    <path d="M 175.55 89.8056 
C 176.88185 89.8056 178.15933 89.279864 179.10109 88.34418 
C 180.04285 87.408496 180.572 86.139257 180.572 84.816 
C 180.572 83.492743 180.04285 82.223504 179.10109 81.28782 
C 178.15933 80.352136 176.88185 79.8264 175.55 79.8264 
C 174.21815 79.8264 172.94067 80.352136 171.99891 81.28782 
C 171.05715 82.223504 170.528 83.492743 170.528 84.816 
C 170.528 86.139257 171.05715 87.408496 171.99891 88.34418 
C 172.94067 89.279864 174.21815 89.8056 175.55 89.8056 
z
" clip-path="url(#pa6da3e2c93)" style="stroke: #000000; stroke-linejoin: miter"/>
   </g>
   <g id="patch_105">
    <path d="M 217.4 56.5416 
C 218.73185 56.5416 220.00933 56.015864 220.95109 55.08018 
C 221.89285 54.144496 222.422 52.875257 222.422 51.552 
C 222.422 50.228743 221.89285 48.959504 220.95109 48.02382 
C 220.00933 47.088136 218.73185 46.5624 217.4 46.5624 
C 216.06815 46.5624 214.79067 47.088136 213.84891 48.02382 
C 212.90715 48.959504 212.378 50.228743 212.378 51.552 
C 212.378 52.875257 212.90715 54.144496 213.84891 55.08018 
C 214.79067 56.015864 216.06815 56.5416 217.4 56.5416 
z
" clip-path="url(#pa6da3e2c93)" style="stroke: #000000; stroke-linejoin: miter"/>
   </g>
   <g id="patch_106">
    <path d="M 200.66 73.1736 
C 201.99185 73.1736 203.26933 72.647864 204.21109 71.71218 
C 205.15285 70.776496 205.682 69.507257 205.682 68.184 
C 205.682 66.860743 205.15285 65.591504 204.21109 64.65582 
C 203.26933 63.720136 201.99185 63.1944 200.66 63.1944 
C 199.32815 63.1944 198.05067 63.720136 197.10891 64.65582 
C 196.16715 65.591504 195.638 66.860743 195.638 68.184 
C 195.638 69.507257 196.16715 70.776496 197.10891 71.71218 
C 198.05067 72.647864 199.32815 73.1736 200.66 73.1736 
z
" clip-path="url(#pa6da3e2c93)" style="stroke: #000000; stroke-linejoin: miter"/>
   </g>
   <g id="patch_107">
    <path d="M 217.4 78.7176 
C 218.73185 78.7176 220.00933 78.191864 220.95109 77.25618 
C 221.89285 76.320496 222.422 75.051257 222.422 73.728 
C 222.422 72.404743 221.89285 71.135504 220.95109 70.19982 
C 220.00933 69.264136 218.73185 68.7384 217.4 68.7384 
C 216.06815 68.7384 214.79067 69.264136 213.84891 70.19982 
C 212.90715 71.135504 212.378 72.404743 212.378 73.728 
C 212.378 75.051257 212.90715 76.320496 213.84891 77.25618 
C 214.79067 78.191864 216.06815 78.7176 217.4 78.7176 
z
" clip-path="url(#pa6da3e2c93)" style="stroke: #000000; stroke-linejoin: miter"/>
   </g>
   <g id="patch_108">
    <path d="M 231.35 311.5656 
C 232.68185 311.5656 233.95933 311.039864 234.90109 310.10418 
C 235.84285 309.168496 236.372 307.899257 236.372 306.576 
C 236.372 305.252743 235.84285 303.983504 234.90109 303.04782 
C 233.95933 302.112136 232.68185 301.5864 231.35 301.5864 
C 230.01815 301.5864 228.74067 302.112136 227.79891 303.04782 
C 226.85715 303.983504 226.328 305.252743 226.328 306.576 
C 226.328 307.899257 226.85715 309.168496 227.79891 310.10418 
C 228.74067 311.039864 230.01815 311.5656 231.35 311.5656 
z
" clip-path="url(#pa6da3e2c93)" style="stroke: #000000; stroke-linejoin: miter"/>
   </g>
   <g id="patch_109">
    <path d="M 273.2 278.3016 
C 274.53185 278.3016 275.80933 277.775864 276.75109 276.84018 
C 277.69285 275.904496 278.222 274.635257 278.222 273.312 
C 278.222 271.988743 277.69285 270.719504 276.75109 269.78382 
C 275.80933 268.848136 274.53185 268.3224 273.2 268.3224 
C 271.86815 268.3224 270.59067 268.848136 269.64891 269.78382 
C 268.70715 270.719504 268.178 271.988743 268.178 273.312 
C 268.178 274.635257 268.70715 275.904496 269.64891 276.84018 
C 270.59067 277.775864 271.86815 278.3016 273.2 278.3016 
z
" clip-path="url(#pa6da3e2c93)" style="stroke: #000000; stroke-linejoin: miter"/>
   </g>
   <g id="patch_110">
    <path d="M 256.46 294.9336 
C 257.79185 294.9336 259.06933 294.407864 260.01109 293.47218 
C 260.95285 292.536496 261.482 291.267257 261.482 289.944 
C 261.482 288.620743 260.95285 287.351504 260.01109 286.41582 
C 259.06933 285.480136 257.79185 284.9544 256.46 284.9544 
C 255.12815 284.9544 253.85067 285.480136 252.90891 286.41582 
C 251.96715 287.351504 251.438 288.620743 251.438 289.944 
C 251.438 291.267257 251.96715 292.536496 252.90891 293.47218 
C 253.85067 294.407864 255.12815 294.9336 256.46 294.9336 
z
" clip-path="url(#pa6da3e2c93)" style="stroke: #000000; stroke-linejoin: miter"/>
   </g>
   <g id="patch_111">
    <path d="M 273.2 300.4776 
C 274.53185 300.4776 275.80933 299.951864 276.75109 299.01618 
C 277.69285 298.080496 278.222 296.811257 278.222 295.488 
C 278.222 294.164743 277.69285 292.895504 276.75109 291.95982 
C 275.80933 291.024136 274.53185 290.4984 273.2 290.4984 
C 271.86815 290.4984 270.59067 291.024136 269.64891 291.95982 
C 268.70715 292.895504 268.178 294.164743 268.178 295.488 
C 268.178 296.811257 268.70715 298.080496 269.64891 299.01618 
C 270.59067 299.951864 271.86815 300.4776 273.2 300.4776 
z
" clip-path="url(#pa6da3e2c93)" style="stroke: #000000; stroke-linejoin: miter"/>
   </g>
   <g id="patch_112">
    <path d="M 231.35 256.1256 
C 232.68185 256.1256 233.95933 255.599864 234.90109 254.66418 
C 235.84285 253.728496 236.372 252.459257 236.372 251.136 
C 236.372 249.812743 235.84285 248.543504 234.90109 247.60782 
C 233.95933 246.672136 232.68185 246.1464 231.35 246.1464 
C 230.01815 246.1464 228.74067 246.672136 227.79891 247.60782 
C 226.85715 248.543504 226.328 249.812743 226.328 251.136 
C 226.328 252.459257 226.85715 253.728496 227.79891 254.66418 
C 228.74067 255.599864 230.01815 256.1256 231.35 256.1256 
z
" clip-path="url(#pa6da3e2c93)" style="stroke: #000000; stroke-linejoin: miter"/>
   </g>
   <g id="patch_113">
    <path d="M 273.2 222.8616 
C 274.53185 222.8616 275.80933 222.335864 276.75109 221.40018 
C 277.69285 220.464496 278.222 219.195257 278.222 217.872 
C 278.222 216.548743 277.69285 215.279504 276.75109 214.34382 
C 275.80933 213.408136 274.53185 212.8824 273.2 212.8824 
C 271.86815 212.8824 270.59067 213.408136 269.64891 214.34382 
C 268.70715 215.279504 268.178 216.548743 268.178 217.872 
C 268.178 219.195257 268.70715 220.464496 269.64891 221.40018 
C 270.59067 222.335864 271.86815 222.8616 273.2 222.8616 
z
" clip-path="url(#pa6da3e2c93)" style="stroke: #000000; stroke-linejoin: miter"/>
   </g>
   <g id="patch_114">
    <path d="M 256.46 239.4936 
C 257.79185 239.4936 259.06933 238.967864 260.01109 238.03218 
C 260.95285 237.096496 261.482 235.827257 261.482 234.504 
C 261.482 233.180743 260.95285 231.911504 260.01109 230.97582 
C 259.06933 230.040136 257.79185 229.5144 256.46 229.5144 
C 255.12815 229.5144 253.85067 230.040136 252.90891 230.97582 
C 251.96715 231.911504 251.438 233.180743 251.438 234.504 
C 251.438 235.827257 251.96715 237.096496 252.90891 238.03218 
C 253.85067 238.967864 255.12815 239.4936 256.46 239.4936 
z
" clip-path="url(#pa6da3e2c93)" style="stroke: #000000; stroke-linejoin: miter"/>
   </g>
   <g id="patch_115">
    <path d="M 273.2 245.0376 
C 274.53185 245.0376 275.80933 244.511864 276.75109 243.57618 
C 277.69285 242.640496 278.222 241.371257 278.222 240.048 
C 278.222 238.724743 277.69285 237.455504 276.75109 236.51982 
C 275.80933 235.584136 274.53185 235.0584 273.2 235.0584 
C 271.86815 235.0584 270.59067 235.584136 269.64891 236.51982 
C 268.70715 237.455504 268.178 238.724743 268.178 240.048 
C 268.178 241.371257 268.70715 242.640496 269.64891 243.57618 
C 270.59067 244.511864 271.86815 245.0376 273.2 245.0376 
z
" clip-path="url(#pa6da3e2c93)" style="stroke: #000000; stroke-linejoin: miter"/>
   </g>
   <g id="patch_116">
    <path d="M 231.35 200.6856 
C 232.68185 200.6856 233.95933 200.159864 234.90109 199.22418 
C 235.84285 198.288496 236.372 197.019257 236.372 195.696 
C 236.372 194.372743 235.84285 193.103504 234.90109 192.16782 
C 233.95933 191.232136 232.68185 190.7064 231.35 190.7064 
C 230.01815 190.7064 228.74067 191.232136 227.79891 192.16782 
C 226.85715 193.103504 226.328 194.372743 226.328 195.696 
C 226.328 197.019257 226.85715 198.288496 227.79891 199.22418 
C 228.74067 200.159864 230.01815 200.6856 231.35 200.6856 
z
" clip-path="url(#pa6da3e2c93)" style="stroke: #000000; stroke-linejoin: miter"/>
   </g>
   <g id="patch_117">
    <path d="M 273.2 167.4216 
C 274.53185 167.4216 275.80933 166.895864 276.75109 165.96018 
C 277.69285 165.024496 278.222 163.755257 278.222 162.432 
C 278.222 161.108743 277.69285 159.839504 276.75109 158.90382 
C 275.80933 157.968136 274.53185 157.4424 273.2 157.4424 
C 271.86815 157.4424 270.59067 157.968136 269.64891 158.90382 
C 268.70715 159.839504 268.178 161.108743 268.178 162.432 
C 268.178 163.755257 268.70715 165.024496 269.64891 165.96018 
C 270.59067 166.895864 271.86815 167.4216 273.2 167.4216 
z
" clip-path="url(#pa6da3e2c93)" style="stroke: #000000; stroke-linejoin: miter"/>
   </g>
   <g id="patch_118">
    <path d="M 256.46 184.0536 
C 257.79185 184.0536 259.06933 183.527864 260.01109 182.59218 
C 260.95285 181.656496 261.482 180.387257 261.482 179.064 
C 261.482 177.740743 260.95285 176.471504 260.01109 175.53582 
C 259.06933 174.600136 257.79185 174.0744 256.46 174.0744 
C 255.12815 174.0744 253.85067 174.600136 252.90891 175.53582 
C 251.96715 176.471504 251.438 177.740743 251.438 179.064 
C 251.438 180.387257 251.96715 181.656496 252.90891 182.59218 
C 253.85067 183.527864 255.12815 184.0536 256.46 184.0536 
z
" clip-path="url(#pa6da3e2c93)" style="stroke: #000000; stroke-linejoin: miter"/>
   </g>
   <g id="patch_119">
    <path d="M 273.2 189.5976 
C 274.53185 189.5976 275.80933 189.071864 276.75109 188.13618 
C 277.69285 187.200496 278.222 185.931257 278.222 184.608 
C 278.222 183.284743 277.69285 182.015504 276.75109 181.07982 
C 275.80933 180.144136 274.53185 179.6184 273.2 179.6184 
C 271.86815 179.6184 270.59067 180.144136 269.64891 181.07982 
C 268.70715 182.015504 268.178 183.284743 268.178 184.608 
C 268.178 185.931257 268.70715 187.200496 269.64891 188.13618 
C 270.59067 189.071864 271.86815 189.5976 273.2 189.5976 
z
" clip-path="url(#pa6da3e2c93)" style="stroke: #000000; stroke-linejoin: miter"/>
   </g>
   <g id="patch_120">
    <path d="M 231.35 145.2456 
C 232.68185 145.2456 233.95933 144.719864 234.90109 143.78418 
C 235.84285 142.848496 236.372 141.579257 236.372 140.256 
C 236.372 138.932743 235.84285 137.663504 234.90109 136.72782 
C 233.95933 135.792136 232.68185 135.2664 231.35 135.2664 
C 230.01815 135.2664 228.74067 135.792136 227.79891 136.72782 
C 226.85715 137.663504 226.328 138.932743 226.328 140.256 
C 226.328 141.579257 226.85715 142.848496 227.79891 143.78418 
C 228.74067 144.719864 230.01815 145.2456 231.35 145.2456 
z
" clip-path="url(#pa6da3e2c93)" style="stroke: #000000; stroke-linejoin: miter"/>
   </g>
   <g id="patch_121">
    <path d="M 273.2 111.9816 
C 274.53185 111.9816 275.80933 111.455864 276.75109 110.52018 
C 277.69285 109.584496 278.222 108.315257 278.222 106.992 
C 278.222 105.668743 277.69285 104.399504 276.75109 103.46382 
C 275.80933 102.528136 274.53185 102.0024 273.2 102.0024 
C 271.86815 102.0024 270.59067 102.528136 269.64891 103.46382 
C 268.70715 104.399504 268.178 105.668743 268.178 106.992 
C 268.178 108.315257 268.70715 109.584496 269.64891 110.52018 
C 270.59067 111.455864 271.86815 111.9816 273.2 111.9816 
z
" clip-path="url(#pa6da3e2c93)" style="stroke: #000000; stroke-linejoin: miter"/>
   </g>
   <g id="patch_122">
    <path d="M 256.46 128.6136 
C 257.79185 128.6136 259.06933 128.087864 260.01109 127.15218 
C 260.95285 126.216496 261.482 124.947257 261.482 123.624 
C 261.482 122.300743 260.95285 121.031504 260.01109 120.09582 
C 259.06933 119.160136 257.79185 118.6344 256.46 118.6344 
C 255.12815 118.6344 253.85067 119.160136 252.90891 120.09582 
C 251.96715 121.031504 251.438 122.300743 251.438 123.624 
C 251.438 124.947257 251.96715 126.216496 252.90891 127.15218 
C 253.85067 128.087864 255.12815 128.6136 256.46 128.6136 
z
" clip-path="url(#pa6da3e2c93)" style="stroke: #000000; stroke-linejoin: miter"/>
   </g>
   <g id="patch_123">
    <path d="M 273.2 134.1576 
C 274.53185 134.1576 275.80933 133.631864 276.75109 132.69618 
C 277.69285 131.760496 278.222 130.491257 278.222 129.168 
C 278.222 127.844743 277.69285 126.575504 276.75109 125.63982 
C 275.80933 124.704136 274.53185 124.1784 273.2 124.1784 
C 271.86815 124.1784 270.59067 124.704136 269.64891 125.63982 
C 268.70715 126.575504 268.178 127.844743 268.178 129.168 
C 268.178 130.491257 268.70715 131.760496 269.64891 132.69618 
C 270.59067 133.631864 271.86815 134.1576 273.2 134.1576 
z
" clip-path="url(#pa6da3e2c93)" style="stroke: #000000; stroke-linejoin: miter"/>
   </g>
   <g id="patch_124">
    <path d="M 231.35 89.8056 
C 232.68185 89.8056 233.95933 89.279864 234.90109 88.34418 
C 235.84285 87.408496 236.372 86.139257 236.372 84.816 
C 236.372 83.492743 235.84285 82.223504 234.90109 81.28782 
C 233.95933 80.352136 232.68185 79.8264 231.35 79.8264 
C 230.01815 79.8264 228.74067 80.352136 227.79891 81.28782 
C 226.85715 82.223504 226.328 83.492743 226.328 84.816 
C 226.328 86.139257 226.85715 87.408496 227.79891 88.34418 
C 228.74067 89.279864 230.01815 89.8056 231.35 89.8056 
z
" clip-path="url(#pa6da3e2c93)" style="stroke: #000000; stroke-linejoin: miter"/>
   </g>
   <g id="patch_125">
    <path d="M 273.2 56.5416 
C 274.53185 56.5416 275.80933 56.015864 276.75109 55.08018 
C 277.69285 54.144496 278.222 52.875257 278.222 51.552 
C 278.222 50.228743 277.69285 48.959504 276.75109 48.02382 
C 275.80933 47.088136 274.53185 46.5624 273.2 46.5624 
C 271.86815 46.5624 270.59067 47.088136 269.64891 48.02382 
C 268.70715 48.959504 268.178 50.228743 268.178 51.552 
C 268.178 52.875257 268.70715 54.144496 269.64891 55.08018 
C 270.59067 56.015864 271.86815 56.5416 273.2 56.5416 
z
" clip-path="url(#pa6da3e2c93)" style="stroke: #000000; stroke-linejoin: miter"/>
   </g>
   <g id="patch_126">
    <path d="M 256.46 73.1736 
C 257.79185 73.1736 259.06933 72.647864 260.01109 71.71218 
C 260.95285 70.776496 261.482 69.507257 261.482 68.184 
C 261.482 66.860743 260.95285 65.591504 260.01109 64.65582 
C 259.06933 63.720136 257.79185 63.1944 256.46 63.1944 
C 255.12815 63.1944 253.85067 63.720136 252.90891 64.65582 
C 251.96715 65.591504 251.438 66.860743 251.438 68.184 
C 251.438 69.507257 251.96715 70.776496 252.90891 71.71218 
C 253.85067 72.647864 255.12815 73.1736 256.46 73.1736 
z
" clip-path="url(#pa6da3e2c93)" style="stroke: #000000; stroke-linejoin: miter"/>
   </g>
   <g id="patch_127">
    <path d="M 273.2 78.7176 
C 274.53185 78.7176 275.80933 78.191864 276.75109 77.25618 
C 277.69285 76.320496 278.222 75.051257 278.222 73.728 
C 278.222 72.404743 277.69285 71.135504 276.75109 70.19982 
C 275.80933 69.264136 274.53185 68.7384 273.2 68.7384 
C 271.86815 68.7384 270.59067 69.264136 269.64891 70.19982 
C 268.70715 71.135504 268.178 72.404743 268.178 73.728 
C 268.178 75.051257 268.70715 76.320496 269.64891 77.25618 
C 270.59067 78.191864 271.86815 78.7176 273.2 78.7176 
z
" clip-path="url(#pa6da3e2c93)" style="stroke: #000000; stroke-linejoin: miter"/>
   </g>
   <g id="patch_128">
    <path d="M 287.15 311.5656 
C 288.48185 311.5656 289.75933 311.039864 290.70109 310.10418 
C 291.64285 309.168496 292.172 307.899257 292.172 306.576 
C 292.172 305.252743 291.64285 303.983504 290.70109 303.04782 
C 289.75933 302.112136 288.48185 301.5864 287.15 301.5864 
C 285.81815 301.5864 284.54067 302.112136 283.59891 303.04782 
C 282.65715 303.983504 282.128 305.252743 282.128 306.576 
C 282.128 307.899257 282.65715 309.168496 283.59891 310.10418 
C 284.54067 311.039864 285.81815 311.5656 287.15 311.5656 
z
" clip-path="url(#pa6da3e2c93)" style="stroke: #000000; stroke-linejoin: miter"/>
   </g>
   <g id="patch_129">
    <path d="M 329 278.3016 
C 330.33185 278.3016 331.60933 277.775864 332.55109 276.84018 
C 333.49285 275.904496 334.022 274.635257 334.022 273.312 
C 334.022 271.988743 333.49285 270.719504 332.55109 269.78382 
C 331.60933 268.848136 330.33185 268.3224 329 268.3224 
C 327.66815 268.3224 326.39067 268.848136 325.44891 269.78382 
C 324.50715 270.719504 323.978 271.988743 323.978 273.312 
C 323.978 274.635257 324.50715 275.904496 325.44891 276.84018 
C 326.39067 277.775864 327.66815 278.3016 329 278.3016 
z
" clip-path="url(#pa6da3e2c93)" style="stroke: #000000; stroke-linejoin: miter"/>
   </g>
   <g id="patch_130">
    <path d="M 312.26 294.9336 
C 313.59185 294.9336 314.86933 294.407864 315.81109 293.47218 
C 316.75285 292.536496 317.282 291.267257 317.282 289.944 
C 317.282 288.620743 316.75285 287.351504 315.81109 286.41582 
C 314.86933 285.480136 313.59185 284.9544 312.26 284.9544 
C 310.92815 284.9544 309.65067 285.480136 308.70891 286.41582 
C 307.76715 287.351504 307.238 288.620743 307.238 289.944 
C 307.238 291.267257 307.76715 292.536496 308.70891 293.47218 
C 309.65067 294.407864 310.92815 294.9336 312.26 294.9336 
z
" clip-path="url(#pa6da3e2c93)" style="stroke: #000000; stroke-linejoin: miter"/>
   </g>
   <g id="patch_131">
    <path d="M 329 300.4776 
C 330.33185 300.4776 331.60933 299.951864 332.55109 299.01618 
C 333.49285 298.080496 334.022 296.811257 334.022 295.488 
C 334.022 294.164743 333.49285 292.895504 332.55109 291.95982 
C 331.60933 291.024136 330.33185 290.4984 329 290.4984 
C 327.66815 290.4984 326.39067 291.024136 325.44891 291.95982 
C 324.50715 292.895504 323.978 294.164743 323.978 295.488 
C 323.978 296.811257 324.50715 298.080496 325.44891 299.01618 
C 326.39067 299.951864 327.66815 300.4776 329 300.4776 
z
" clip-path="url(#pa6da3e2c93)" style="stroke: #000000; stroke-linejoin: miter"/>
   </g>
   <g id="patch_132">
    <path d="M 287.15 256.1256 
C 288.48185 256.1256 289.75933 255.599864 290.70109 254.66418 
C 291.64285 253.728496 292.172 252.459257 292.172 251.136 
C 292.172 249.812743 291.64285 248.543504 290.70109 247.60782 
C 289.75933 246.672136 288.48185 246.1464 287.15 246.1464 
C 285.81815 246.1464 284.54067 246.672136 283.59891 247.60782 
C 282.65715 248.543504 282.128 249.812743 282.128 251.136 
C 282.128 252.459257 282.65715 253.728496 283.59891 254.66418 
C 284.54067 255.599864 285.81815 256.1256 287.15 256.1256 
z
" clip-path="url(#pa6da3e2c93)" style="stroke: #000000; stroke-linejoin: miter"/>
   </g>
   <g id="patch_133">
    <path d="M 329 222.8616 
C 330.33185 222.8616 331.60933 222.335864 332.55109 221.40018 
C 333.49285 220.464496 334.022 219.195257 334.022 217.872 
C 334.022 216.548743 333.49285 215.279504 332.55109 214.34382 
C 331.60933 213.408136 330.33185 212.8824 329 212.8824 
C 327.66815 212.8824 326.39067 213.408136 325.44891 214.34382 
C 324.50715 215.279504 323.978 216.548743 323.978 217.872 
C 323.978 219.195257 324.50715 220.464496 325.44891 221.40018 
C 326.39067 222.335864 327.66815 222.8616 329 222.8616 
z
" clip-path="url(#pa6da3e2c93)" style="stroke: #000000; stroke-linejoin: miter"/>
   </g>
   <g id="patch_134">
    <path d="M 312.26 239.4936 
C 313.59185 239.4936 314.86933 238.967864 315.81109 238.03218 
C 316.75285 237.096496 317.282 235.827257 317.282 234.504 
C 317.282 233.180743 316.75285 231.911504 315.81109 230.97582 
C 314.86933 230.040136 313.59185 229.5144 312.26 229.5144 
C 310.92815 229.5144 309.65067 230.040136 308.70891 230.97582 
C 307.76715 231.911504 307.238 233.180743 307.238 234.504 
C 307.238 235.827257 307.76715 237.096496 308.70891 238.03218 
C 309.65067 238.967864 310.92815 239.4936 312.26 239.4936 
z
" clip-path="url(#pa6da3e2c93)" style="stroke: #000000; stroke-linejoin: miter"/>
   </g>
   <g id="patch_135">
    <path d="M 329 245.0376 
C 330.33185 245.0376 331.60933 244.511864 332.55109 243.57618 
C 333.49285 242.640496 334.022 241.371257 334.022 240.048 
C 334.022 238.724743 333.49285 237.455504 332.55109 236.51982 
C 331.60933 235.584136 330.33185 235.0584 329 235.0584 
C 327.66815 235.0584 326.39067 235.584136 325.44891 236.51982 
C 324.50715 237.455504 323.978 238.724743 323.978 240.048 
C 323.978 241.371257 324.50715 242.640496 325.44891 243.57618 
C 326.39067 244.511864 327.66815 245.0376 329 245.0376 
z
" clip-path="url(#pa6da3e2c93)" style="stroke: #000000; stroke-linejoin: miter"/>
   </g>
   <g id="patch_136">
    <path d="M 287.15 200.6856 
C 288.48185 200.6856 289.75933 200.159864 290.70109 199.22418 
C 291.64285 198.288496 292.172 197.019257 292.172 195.696 
C 292.172 194.372743 291.64285 193.103504 290.70109 192.16782 
C 289.75933 191.232136 288.48185 190.7064 287.15 190.7064 
C 285.81815 190.7064 284.54067 191.232136 283.59891 192.16782 
C 282.65715 193.103504 282.128 194.372743 282.128 195.696 
C 282.128 197.019257 282.65715 198.288496 283.59891 199.22418 
C 284.54067 200.159864 285.81815 200.6856 287.15 200.6856 
z
" clip-path="url(#pa6da3e2c93)" style="stroke: #000000; stroke-linejoin: miter"/>
   </g>
   <g id="patch_137">
    <path d="M 329 167.4216 
C 330.33185 167.4216 331.60933 166.895864 332.55109 165.96018 
C 333.49285 165.024496 334.022 163.755257 334.022 162.432 
C 334.022 161.108743 333.49285 159.839504 332.55109 158.90382 
C 331.60933 157.968136 330.33185 157.4424 329 157.4424 
C 327.66815 157.4424 326.39067 157.968136 325.44891 158.90382 
C 324.50715 159.839504 323.978 161.108743 323.978 162.432 
C 323.978 163.755257 324.50715 165.024496 325.44891 165.96018 
C 326.39067 166.895864 327.66815 167.4216 329 167.4216 
z
" clip-path="url(#pa6da3e2c93)" style="stroke: #000000; stroke-linejoin: miter"/>
   </g>
   <g id="patch_138">
    <path d="M 312.26 184.0536 
C 313.59185 184.0536 314.86933 183.527864 315.81109 182.59218 
C 316.75285 181.656496 317.282 180.387257 317.282 179.064 
C 317.282 177.740743 316.75285 176.471504 315.81109 175.53582 
C 314.86933 174.600136 313.59185 174.0744 312.26 174.0744 
C 310.92815 174.0744 309.65067 174.600136 308.70891 175.53582 
C 307.76715 176.471504 307.238 177.740743 307.238 179.064 
C 307.238 180.387257 307.76715 181.656496 308.70891 182.59218 
C 309.65067 183.527864 310.92815 184.0536 312.26 184.0536 
z
" clip-path="url(#pa6da3e2c93)" style="stroke: #000000; stroke-linejoin: miter"/>
   </g>
   <g id="patch_139">
    <path d="M 329 189.5976 
C 330.33185 189.5976 331.60933 189.071864 332.55109 188.13618 
C 333.49285 187.200496 334.022 185.931257 334.022 184.608 
C 334.022 183.284743 333.49285 182.015504 332.55109 181.07982 
C 331.60933 180.144136 330.33185 179.6184 329 179.6184 
C 327.66815 179.6184 326.39067 180.144136 325.44891 181.07982 
C 324.50715 182.015504 323.978 183.284743 323.978 184.608 
C 323.978 185.931257 324.50715 187.200496 325.44891 188.13618 
C 326.39067 189.071864 327.66815 189.5976 329 189.5976 
z
" clip-path="url(#pa6da3e2c93)" style="stroke: #000000; stroke-linejoin: miter"/>
   </g>
   <g id="patch_140">
    <path d="M 287.15 145.2456 
C 288.48185 145.2456 289.75933 144.719864 290.70109 143.78418 
C 291.64285 142.848496 292.172 141.579257 292.172 140.256 
C 292.172 138.932743 291.64285 137.663504 290.70109 136.72782 
C 289.75933 135.792136 288.48185 135.2664 287.15 135.2664 
C 285.81815 135.2664 284.54067 135.792136 283.59891 136.72782 
C 282.65715 137.663504 282.128 138.932743 282.128 140.256 
C 282.128 141.579257 282.65715 142.848496 283.59891 143.78418 
C 284.54067 144.719864 285.81815 145.2456 287.15 145.2456 
z
" clip-path="url(#pa6da3e2c93)" style="stroke: #000000; stroke-linejoin: miter"/>
   </g>
   <g id="patch_141">
    <path d="M 329 111.9816 
C 330.33185 111.9816 331.60933 111.455864 332.55109 110.52018 
C 333.49285 109.584496 334.022 108.315257 334.022 106.992 
C 334.022 105.668743 333.49285 104.399504 332.55109 103.46382 
C 331.60933 102.528136 330.33185 102.0024 329 102.0024 
C 327.66815 102.0024 326.39067 102.528136 325.44891 103.46382 
C 324.50715 104.399504 323.978 105.668743 323.978 106.992 
C 323.978 108.315257 324.50715 109.584496 325.44891 110.52018 
C 326.39067 111.455864 327.66815 111.9816 329 111.9816 
z
" clip-path="url(#pa6da3e2c93)" style="stroke: #000000; stroke-linejoin: miter"/>
   </g>
   <g id="patch_142">
    <path d="M 312.26 128.6136 
C 313.59185 128.6136 314.86933 128.087864 315.81109 127.15218 
C 316.75285 126.216496 317.282 124.947257 317.282 123.624 
C 317.282 122.300743 316.75285 121.031504 315.81109 120.09582 
C 314.86933 119.160136 313.59185 118.6344 312.26 118.6344 
C 310.92815 118.6344 309.65067 119.160136 308.70891 120.09582 
C 307.76715 121.031504 307.238 122.300743 307.238 123.624 
C 307.238 124.947257 307.76715 126.216496 308.70891 127.15218 
C 309.65067 128.087864 310.92815 128.6136 312.26 128.6136 
z
" clip-path="url(#pa6da3e2c93)" style="stroke: #000000; stroke-linejoin: miter"/>
   </g>
   <g id="patch_143">
    <path d="M 329 134.1576 
C 330.33185 134.1576 331.60933 133.631864 332.55109 132.69618 
C 333.49285 131.760496 334.022 130.491257 334.022 129.168 
C 334.022 127.844743 333.49285 126.575504 332.55109 125.63982 
C 331.60933 124.704136 330.33185 124.1784 329 124.1784 
C 327.66815 124.1784 326.39067 124.704136 325.44891 125.63982 
C 324.50715 126.575504 323.978 127.844743 323.978 129.168 
C 323.978 130.491257 324.50715 131.760496 325.44891 132.69618 
C 326.39067 133.631864 327.66815 134.1576 329 134.1576 
z
" clip-path="url(#pa6da3e2c93)" style="stroke: #000000; stroke-linejoin: miter"/>
   </g>
   <g id="patch_144">
    <path d="M 287.15 89.8056 
C 288.48185 89.8056 289.75933 89.279864 290.70109 88.34418 
C 291.64285 87.408496 292.172 86.139257 292.172 84.816 
C 292.172 83.492743 291.64285 82.223504 290.70109 81.28782 
C 289.75933 80.352136 288.48185 79.8264 287.15 79.8264 
C 285.81815 79.8264 284.54067 80.352136 283.59891 81.28782 
C 282.65715 82.223504 282.128 83.492743 282.128 84.816 
C 282.128 86.139257 282.65715 87.408496 283.59891 88.34418 
C 284.54067 89.279864 285.81815 89.8056 287.15 89.8056 
z
" clip-path="url(#pa6da3e2c93)" style="stroke: #000000; stroke-linejoin: miter"/>
   </g>
   <g id="patch_145">
    <path d="M 329 56.5416 
C 330.33185 56.5416 331.60933 56.015864 332.55109 55.08018 
C 333.49285 54.144496 334.022 52.875257 334.022 51.552 
C 334.022 50.228743 333.49285 48.959504 332.55109 48.02382 
C 331.60933 47.088136 330.33185 46.5624 329 46.5624 
C 327.66815 46.5624 326.39067 47.088136 325.44891 48.02382 
C 324.50715 48.959504 323.978 50.228743 323.978 51.552 
C 323.978 52.875257 324.50715 54.144496 325.44891 55.08018 
C 326.39067 56.015864 327.66815 56.5416 329 56.5416 
z
" clip-path="url(#pa6da3e2c93)" style="stroke: #000000; stroke-linejoin: miter"/>
   </g>
   <g id="patch_146">
    <path d="M 312.26 73.1736 
C 313.59185 73.1736 314.86933 72.647864 315.81109 71.71218 
C 316.75285 70.776496 317.282 69.507257 317.282 68.184 
C 317.282 66.860743 316.75285 65.591504 315.81109 64.65582 
C 314.86933 63.720136 313.59185 63.1944 312.26 63.1944 
C 310.92815 63.1944 309.65067 63.720136 308.70891 64.65582 
C 307.76715 65.591504 307.238 66.860743 307.238 68.184 
C 307.238 69.507257 307.76715 70.776496 308.70891 71.71218 
C 309.65067 72.647864 310.92815 73.1736 312.26 73.1736 
z
" clip-path="url(#pa6da3e2c93)" style="stroke: #000000; stroke-linejoin: miter"/>
   </g>
   <g id="patch_147">
    <path d="M 329 78.7176 
C 330.33185 78.7176 331.60933 78.191864 332.55109 77.25618 
C 333.49285 76.320496 334.022 75.051257 334.022 73.728 
C 334.022 72.404743 333.49285 71.135504 332.55109 70.19982 
C 331.60933 69.264136 330.33185 68.7384 329 68.7384 
C 327.66815 68.7384 326.39067 69.264136 325.44891 70.19982 
C 324.50715 71.135504 323.978 72.404743 323.978 73.728 
C 323.978 75.051257 324.50715 76.320496 325.44891 77.25618 
C 326.39067 78.191864 327.66815 78.7176 329 78.7176 
z
" clip-path="url(#pa6da3e2c93)" style="stroke: #000000; stroke-linejoin: miter"/>
   </g>
   <g id="text_13">
    <!-- $I$ -->
    <g style="fill: #ffffff" transform="translate(172.69 198.819047) scale(0.13 -0.13)">
     <use xlink:href="#Cmmi10-49" transform="translate(0 0.6875)"/>
    </g>
   </g>
   <g id="text_14">
    <!-- $J$ -->
    <g style="fill: #ffffff" transform="translate(213.76 165.555047) scale(0.13 -0.13)">
     <use xlink:href="#Cmmi10-4a" transform="translate(0 0.6875)"/>
    </g>
   </g>
   <g id="text_15">
    <!-- $K$ -->
    <g style="fill: #ffffff" transform="translate(195.135 182.187047) scale(0.13 -0.13)">
     <use xlink:href="#Cmmi10-4b" transform="translate(0 0.6875)"/>
    </g>
   </g>
   <g id="text_16">
    <!-- $L$ -->
    <g style="fill: #ffffff" transform="translate(212.915 187.731047) scale(0.13 -0.13)">
     <use xlink:href="#Cmmi10-4c" transform="translate(0 0.6875)"/>
    </g>
   </g>
  </g>
 </g>
 <defs>
  <clipPath id="pa6da3e2c93">
   <rect x="27.68" y="7.2" width="334.8" height="332.64"/>
  </clipPath>
 </defs>
</svg>
