<svg xmlns="http://www.w3.org/2000/svg" version="1.1" xmlns:xlink="http://www.w3.org/1999/xlink" xmlns:svgjs="http://svgjs.com/svgjs" width="512.000000pt" height="512.000000pt"><svg version="1.0" xmlns="http://www.w3.org/2000/svg" width="512.000000pt" height="512.000000pt" viewBox="0 0 512.000000 512.000000" preserveAspectRatio="xMidYMid meet">
<metadata>
Created by potrace 1.14, written by Peter Selinger 2001-2017
</metadata>
<g transform="translate(0.000000,512.000000) scale(0.100000,-0.100000)" fill="#000000" stroke="none">
<path d="M2270 3791 c-103 -32 -409 -240 -749 -510 -230 -183 -356 -248 -457
-238 -75 8 -108 30 -185 124 -144 177 -169 199 -197 171 -20 -20 -14 -38 51
-140 113 -180 146 -218 217 -257 62 -35 69 -36 165 -36 91 0 107 3 177 33 43
19 112 55 155 81 72 44 123 80 448 320 148 109 182 131 170 111 -29 -50 -113
-167 -172 -242 -38 -48 -90 -124 -117 -170 -27 -46 -78 -131 -113 -190 -118
-197 -173 -345 -173 -463 0 -173 139 -201 383 -78 39 19 88 41 109 49 l38 13
0 -55 c0 -30 -13 -122 -30 -204 -34 -170 -36 -199 -15 -244 25 -53 65 -70 153
-63 l75 6 -6 -77 c-4 -48 -18 -114 -40 -177 -65 -191 -71 -255 -24 -255 34 0
61 34 101 127 98 230 119 435 51 502 -23 23 -33 26 -100 26 l-75 0 0 35 c0 20
10 87 21 150 12 63 22 159 23 212 1 112 -13 142 -79 167 -54 21 -148 2 -280
-54 -58 -25 -108 -45 -110 -45 -11 0 -3 37 25 121 30 89 165 347 246 469 52
78 266 359 347 455 70 85 99 143 105 211 5 61 -14 97 -60 113 -35 12 -43 12
-78 2z"></path>
<path d="M3215 3737 c-33 -18 -109 -64 -170 -103 -160 -103 -236 -146 -250
-140 -7 2 -31 33 -55 68 -23 34 -47 63 -53 63 -23 0 -12 -106 17 -162 31 -61
48 -73 111 -73 57 0 150 46 345 169 l25 16 -17 -27 c-128 -198 -219 -391 -222
-466 -1 -35 4 -48 23 -63 30 -25 48 -24 150 6 47 14 87 23 90 20 2 -3 -29 -71
-70 -151 -81 -160 -92 -212 -55 -253 37 -41 76 -17 76 48 0 37 11 62 75 176
69 120 89 175 81 219 -4 18 -13 39 -21 46 -31 26 -108 24 -208 -6 -26 -8 53
145 164 317 121 187 145 263 99 309 -28 28 -66 25 -135 -13z"></path>
<path d="M2426 3230 c-53 -21 -96 -55 -96 -77 0 -23 28 -26 57 -5 16 11 47 25
71 31 55 15 97 -4 151 -68 56 -67 80 -120 106 -239 33 -144 53 -432 31 -447
-28 -21 -261 -94 -335 -106 -40 -6 -93 -8 -116 -4 -52 7 -67 -8 -36 -38 19
-19 35 -22 134 -25 99 -3 125 0 230 27 65 17 121 31 124 31 11 0 -6 -292 -22
-390 -9 -52 -18 -171 -21 -265 -5 -152 -4 -174 13 -205 27 -51 72 -74 131 -65
41 6 55 15 112 75 66 67 105 123 194 275 26 44 58 93 71 110 l24 29 23 -21
c36 -33 165 -99 250 -127 170 -57 417 -58 596 -1 86 27 281 123 356 174 63 44
157 133 190 179 28 41 27 72 -3 72 -39 0 -128 -34 -208 -80 -243 -140 -515
-199 -783 -172 -163 17 -359 79 -352 112 2 8 6 36 9 61 5 42 2 51 -20 73 -23
23 -34 26 -92 26 -57 0 -69 -3 -90 -25 -32 -31 -31 -47 5 -111 l29 -53 -53
-68 c-29 -37 -82 -113 -119 -168 -61 -92 -119 -165 -132 -165 -9 0 -5 255 6
320 6 36 13 152 17 259 l7 193 115 34 c193 58 376 110 575 164 211 58 245 72
245 99 0 69 -357 12 -752 -120 -98 -32 -181 -59 -185 -59 -5 0 -16 69 -25 153
-36 327 -110 500 -255 596 -55 37 -103 40 -177 11z"></path>
</g>
</svg><style>@media (prefers-color-scheme: light) { :root { filter: none; } }
@media (prefers-color-scheme: dark) { :root { filter: invert(100%); } }
</style></svg>